<?xml version="1.0" encoding="utf-8"?>
<!-- Generator: Adobe Illustrator 16.0.0, SVG Export Plug-In . SVG Version: 6.00 Build 0)  -->
<!DOCTYPE svg PUBLIC "-//W3C//DTD SVG 1.1//EN" "http://www.w3.org/Graphics/SVG/1.1/DTD/svg11.dtd">
<svg version="1.1" id="Layer_1" xmlns="http://www.w3.org/2000/svg" xmlns:xlink="http://www.w3.org/1999/xlink" x="0px" y="0px"
	 width="1024px" height="1098.727px" viewBox="0 0 1024 1098.727" enable-background="new 0 0 1024 1098.727" xml:space="preserve">

<rect class='svg-promo' fill="#FFFFFF" width="1024.004" height="1024"/>
<g opacity="0.5">
</g>
<g>
	<g>
		<polygon fill="#3B328C" points="484.76,429.29 675.328,428.672 668.192,544.143 484.819,544.738 		"/>
		<g>
			<polygon fill="#635BA7" points="450.191,599.713 453.726,373.239 474.998,372.442 476.79,598.709 			"/>
			<polygon fill="#3B328C" points="474.998,372.442 490.51,383.824 490.705,598.186 476.79,598.709 			"/>
		</g>
		<g>
			<polygon fill="#635BA7" points="656.069,604.486 667.046,378.269 688.335,378.196 682.686,604.4 			"/>
			<polygon fill="#3B328C" points="688.335,378.196 703.465,390.111 696.617,604.355 682.686,604.4 			"/>
		</g>
		<g>
			<polygon fill="#635BA7" points="484.046,613.967 489.976,835.316 510.781,835.857 510.057,614.654 			"/>
			<polygon fill="#3B328C" points="510.781,835.857 525.817,824.561 523.669,615.012 510.057,614.654 			"/>
		</g>
		<g>
			<polygon fill="#635BA7" points="664.25,625.053 674.208,846.24 695.02,846.385 690.265,625.23 			"/>
			<polygon fill="#3B328C" points="695.02,846.385 709.845,834.787 703.881,625.32 690.265,625.23 			"/>
		</g>
		<g>
			<polygon fill="#635BA7" points="596.566,626.297 606.524,847.484 627.338,847.627 622.581,626.475 			"/>
			<polygon fill="#3B328C" points="627.338,847.627 642.163,836.031 636.199,626.564 622.581,626.475 			"/>
		</g>
		<polygon fill="#635BA7" points="470.818,409.239 666.773,415.648 659.629,531.119 476.255,531.715 		"/>
	</g>
	<ellipse opacity="0.4" fill="#41AFDE" cx="540.949" cy="918.096" rx="416.091" ry="80.805"/>
	<g>
		<g>
			<path fill="#B4AAD3" d="M465.705,705.123l21.62,42.479c13.795-15.096,30.456-27.885,48.787-38.441l-7.867-25.35L465.705,705.123z
				"/>
			<path fill="#143C77" d="M515.263,802.457l45.176-14.896l-24.326-78.4c-18.331,10.557-34.992,23.346-48.787,38.441
				L515.263,802.457z"/>
			<g>
				<path fill="#143C77" d="M515.724,804.566c59.016-2.926,37.22-32.525,46.139-17.49c0,0,0.291,62.42-34.771,72.389
					C495.957,868.322,515.724,804.566,515.724,804.566z"/>
				<path fill="#EBE9F4" d="M553.943,823.963c6.189-18.73,5.815-38.391,5.815-38.391c-14.48,8.594-45.252,15.42-45.252,15.42
					s-6.378,20.604-6.172,36.76C521.769,828.482,537.685,824.41,553.943,823.963z"/>
				<g>
					<path fill="#635BA8" d="M530.333,804.824c3.929-5.775,8.823-12.865,7.506-19.391c-0.56-2.824-3.979-3.764-5.849-0.898
						c-1.236,1.906-1.074,4.801-1.129,6.863c-0.089,4.52,1.176,8.963,2.308,13.248c-1.275,0.396-2.537,0.764-3.802,1.143
						c-1.118-4.236-2.104-8.482-3.537-12.623c-0.532-1.51-8.178-17.014-10.992-9.227c-1.441,4.01,5.585,9.49,8.096,11.773
						c3.104,2.863,6.519,5.449,9.993,7.988c2.163,1.557-1.203,4.666-3.323,3.057c-5.522-4.176-26.063-18.135-16.415-26.367
						c12.184-10.398,18.643,19.43,19.98,24.256c0.562,2.078-3.234,3.221-3.802,1.143c-1.833-6.588-3.405-13.984-1.145-21.033
						c0.896-2.885,4.727-6.928,8.478-5.799c12.669,3.859,1.022,20.98-4.688,26.885C531.179,806.717,529.677,805.783,530.333,804.824
						L530.333,804.824z"/>
				</g>
				<path fill="#143C77" d="M508.335,837.752c0.159,12.262,4.108,21.957,17.539,18.135c15.046-4.277,23.41-17.84,28.069-31.924
					C537.685,824.41,521.769,828.482,508.335,837.752z"/>
				<g>
					<path fill="#635BA8" d="M515.466,814.643c12.146-4.971,22.923-10.732,36.23-11.482c0.842-0.047,1.019-1.266,0.178-1.287
						c-12.947-0.367-25.177,6.586-36.686,11.965C514.613,814.111,514.843,814.898,515.466,814.643L515.466,814.643z"/>
				</g>
				<g>
					<path fill="#635BA8" d="M514.598,823.941c12.15-4.975,22.933-10.736,36.228-11.477c0.843-0.053,1.02-1.271,0.178-1.297
						c-12.945-0.363-25.173,6.588-36.682,11.973C513.742,823.406,513.972,824.197,514.598,823.941L514.598,823.941z"/>
				</g>
			</g>
		</g>
		<g>
			<path fill="#B4AAD3" d="M526.604,703.77l6.779,47.182c17.927-9.84,37.815-16.568,58.566-20.646l0.735-26.535H526.604z"/>
			<path fill="#143C77" d="M542.125,811.885l47.559,0.473l2.266-82.053c-20.751,4.078-40.64,10.807-58.566,20.646L542.125,811.885z"
				/>
			<g>
				<path fill="#143C77" d="M541.889,814.029c56.787,16.268,45.709-18.779,49.3-1.672c0,0-19.852,59.176-56.256,57.303
					C502.607,868,541.889,814.029,541.889,814.029z"/>
				<path fill="#EBE9F4" d="M571.796,844.719c11.905-15.734,17.888-34.465,17.888-34.465c-16.473,3.465-47.795,0-47.795,0
					s-12.688,17.447-17.703,32.807C539.891,838.619,556.267,839.898,571.796,844.719z"/>
				<g>
					<path fill="#635BA8" d="M555.624,818.988c5.578-4.201,12.512-9.332,13.361-15.934c0.39-2.854-2.554-4.848-5.245-2.738
						c-1.786,1.406-2.567,4.199-3.277,6.133c-1.547,4.248-1.784,8.861-2.094,13.289c-1.335-0.041-2.655-0.098-3.969-0.152
						c0.31-4.367,0.752-8.703,0.724-13.088c-0.016-1.6-2.242-18.74-7.437-12.279c-2.656,3.332,2.241,10.787,3.874,13.76
						c2.012,3.705,4.418,7.26,6.874,10.781c1.556,2.172-2.633,4.027-4.116,1.822c-3.887-5.73-18.833-25.572-7.03-30.252
						c14.879-5.914,11.376,24.4,11.08,29.408c-0.132,2.143-4.095,2.002-3.969-0.152c0.391-6.822,1.299-14.332,5.695-20.275
						c1.792-2.441,6.705-5.031,9.893-2.754c10.764,7.738-5.792,20.189-13.094,23.938
						C555.81,821.051,554.696,819.682,555.624,818.988L555.624,818.988z"/>
				</g>
				<path fill="#143C77" d="M524.186,843.061c-3.809,11.652-3.195,22.107,10.747,22.822c15.632,0.805,27.921-9.336,36.863-21.164
					C556.267,839.898,539.891,838.619,524.186,843.061z"/>
				<g>
					<path fill="#635BA8" d="M538.378,823.486c13.107-0.789,25.177-2.766,37.998,0.816c0.812,0.227,1.379-0.871,0.59-1.162
						c-12.141-4.521-25.958-1.887-38.588-0.504C537.751,822.705,537.723,823.525,538.378,823.486L538.378,823.486z"/>
				</g>
				<g>
					<path fill="#635BA8" d="M534.556,832.01c13.109-0.791,25.178-2.766,38.008,0.818c0.802,0.225,1.377-0.871,0.582-1.166
						c-12.135-4.523-25.952-1.885-38.59-0.5C533.937,831.227,533.9,832.045,534.556,832.01L534.556,832.01z"/>
				</g>
			</g>
		</g>
	</g>
	<polygon fill="#FAB21B" points="755.902,638.381 748.669,674.793 841.828,581.584 841.828,549.275 	"/>
	<g>
		<polygon fill="#FAB21B" points="371.907,656.59 376.732,883.777 409.736,883.777 413.164,656.59 		"/>
		<polygon fill="#F79828" points="409.736,883.777 433.84,871.762 434.759,656.59 413.164,656.59 		"/>
	</g>
	<g>
		<polygon fill="#FAB21B" points="760.954,653.4 770.625,883.777 803.625,883.777 793.727,656.59 		"/>
		<polygon fill="#F79828" points="803.625,883.777 827.015,871.762 817.153,633.586 793.727,656.59 		"/>
	</g>
	<polygon fill="#F79828" points="748.669,674.793 205.153,674.793 205.153,712.654 753.978,712.654 	"/>
	<polygon fill="#F79828" points="748.669,674.793 753.978,712.654 830.816,624.18 830.816,591.453 	"/>
	<g>
		<polygon fill="#FAB21B" points="231.856,712.654 236.683,939.838 269.686,939.838 273.114,712.654 		"/>
		<polygon fill="#F79828" points="269.686,939.838 293.777,927.826 294.708,712.654 273.114,712.654 		"/>
	</g>
	<g>
		<polygon fill="#FAB21B" points="679.144,712.654 683.968,939.838 716.972,939.838 720.397,712.654 		"/>
		<polygon fill="#F79828" points="716.972,939.838 741.065,927.826 741.995,712.654 720.397,712.654 		"/>
	</g>
	<path fill="#FAB21B" d="M163.304,638.381l10.184,36.412h142.538c-12.763-9.686-25.925-25.887-38.032-36.412H163.304z"/>
	<path fill="#FFBB43" d="M277.994,638.381c12.107,10.525,25.27,26.727,38.032,36.412h43.125
		c-11.744-10.445-27.821-26.113-40.572-36.412H277.994z"/>
	<path fill="#FAB21B" d="M318.579,638.381c12.751,10.299,28.828,25.967,40.572,36.412h49.184
		c-8.508-10.539-22.805-25.977-31.328-36.412H318.579z"/>
	<path fill="#FAB21B" d="M755.902,638.381H453.238c8.331,11.063,22.564,25.672,32.825,36.412h262.605L755.902,638.381z"/>
	<path fill="#FFBB43" d="M377.007,638.381c8.523,10.436,22.82,25.873,31.328,36.412h77.729
		c-10.261-10.74-24.494-25.35-32.825-36.412H377.007z"/>
	<polygon fill="#FFCB73" points="843.478,549.275 312.997,542.264 164.955,638.381 757.551,638.381 	"/>
	<g>
		<path fill="#EBE9F4" d="M453.457,551.322l-52.251,78.742l170.798-1.797l35.22-78.564L453.457,551.322z M560.518,620.746
			c-3.185,0.037-5.815-1.357-5.854-3.102c-0.037-1.746,2.513-3.191,5.7-3.225c3.199-0.033,5.813,1.355,5.853,3.107
			C566.254,619.271,563.716,620.713,560.518,620.746z M576.839,589.121c-3.185,0.039-5.815-1.355-5.853-3.105
			c-0.039-1.742,2.511-3.186,5.698-3.219c3.195-0.035,5.815,1.355,5.853,3.1C582.576,587.641,580.037,589.09,576.839,589.121z
			 M587.758,562.816c-3.185,0.031-5.803-1.357-5.852-3.105c-0.04-1.75,2.512-3.193,5.698-3.227c3.198-0.035,5.814,1.357,5.853,3.105
			C593.496,561.34,590.956,562.781,587.758,562.816z"/>
		<g>
			<path fill="#F1583A" d="M543.576,623.682c12.635-22.41,23.58-46.498,31.547-69.842c0.413-1.197-2.114-1.576-2.732-0.467
				c-12.534,22.496-22.458,46.652-31.122,69.918C540.896,624.291,543.061,624.611,543.576,623.682L543.576,623.682z"/>
		</g>
		<g>
			<path fill="#7ACFE7" d="M423.136,608.822c36.087,1.152,104.44,0.408,140.476-1.662c1.83-0.109,1.623-1.811-0.169-1.867
				c-36.188-1.066-104.324,0.344-140.446,1.955C421.434,607.318,421.627,608.771,423.136,608.822L423.136,608.822z"/>
		</g>
		<g>
			<path fill="#7ACFE7" d="M427.738,595.352c36.101,1.158,104.454,0.41,140.475-1.664c1.845-0.102,1.625-1.805-0.155-1.861
				c-36.189-1.068-104.323,0.338-140.447,1.955C426.037,593.85,426.243,595.305,427.738,595.352L427.738,595.352z"/>
		</g>
		<g>
			<path fill="#7ACFE7" d="M440.955,584.129c33.608,0.965,97.259,0.092,130.816-1.918c1.715-0.102,1.522-1.668-0.142-1.715
				c-33.688-0.881-97.143,0.602-130.792,2.189C439.38,582.752,439.56,584.088,440.955,584.129L440.955,584.129z"/>
		</g>
		<g>
			<path fill="#7ACFE7" d="M443.559,573.354c33.596,0.965,97.246,0.096,130.819-1.916c1.713-0.102,1.521-1.662-0.144-1.709
				c-33.689-0.885-97.146,0.596-130.792,2.184C441.982,571.98,442.165,573.32,443.559,573.354L443.559,573.354z"/>
		</g>
		<g>
			<path fill="#7ACFE7" d="M448.392,562.381c33.6,0.963,97.248,0.094,130.821-1.916c1.698-0.104,1.519-1.668-0.144-1.715
				c-33.701-0.881-97.145,0.602-130.794,2.188C446.819,561.004,446.987,562.342,448.392,562.381L448.392,562.381z"/>
		</g>
	</g>
	<g>
		<path fill="#3B328C" d="M284.687,638.516l-144.251-21.379c0,0,61.698-40.531,73.417-66.117l117.843,17.709
			c0,0,42.658-6.066,33.127,15.799C355.291,606.398,291.915,632.598,284.687,638.516z"/>
		<path fill="#EBE9F4" d="M331.775,575.684l30.213,7.963c0,0-35.247,35.951-68.727,43.693l-139.763-20.719l60.355-55.602
			L331.775,575.684z"/>
		<path fill="#EBE9F4" d="M329.795,568.09l30.207,7.965c0,0-35.247,35.959-68.725,43.689l-139.765-20.713l60.355-55.607
			L329.795,568.09z"/>
		<path fill="#635BA7" d="M287.355,614.014L141.117,592.34c0,0,62.663-46.305,80.103-53.641
			c15.551-6.548,120.748,13.381,120.748,13.381s24.667,1.715,18.044,16.236C353.391,582.842,293.728,610.076,287.355,614.014z"/>
		<path fill="#3B328C" d="M141.117,592.34l146.238,21.674c0,0,7.568,17.355-2.668,24.502l-144.251-21.379
			C140.436,617.137,133.019,612.113,141.117,592.34z"/>
	</g>
	<g>
		<path fill="#F26952" d="M786.885,686.893c0,0,8.059-22.805,32.915-29.912c24.853-7.111,36.891,14.459,36.891,14.459l-7.416,0.838
			c0,0-8.033-9.227-25.632-5.467c-20.023,4.297-24.497,15.668-24.497,15.668L786.885,686.893z"/>
		<g>
			<path fill="#3B328C" d="M806.532,673.668c0,0-64.266,10.82-61.127,54.535c3.157,43.697-1.395,143.664,18.938,178.984
				c8.475,14.721,79.101,2.361,106.833-8.578c27.738-10.928,28.817-40.002,26.116-69.609
				c-2.693-29.613-10.316-99.727-19.186-131.125C872.422,677.771,863.732,663.262,806.532,673.668z"/>
			<path fill="#635BA8" d="M821.422,674.5c0,0-64.276,10.822-61.113,54.535c3.153,43.699-1.401,143.66,18.932,178.982
				c8.48,14.729,79.099,2.359,106.831-8.568c27.737-10.939,28.82-40.008,26.118-69.621c-2.694-29.611-10.314-99.725-19.187-131.123
				C887.312,678.607,878.628,664.088,821.422,674.5z"/>
			<path fill="#FFCC72" d="M907.673,814.049c-1.479-6.197-3.226-11.709-5.357-15.721c-5.375-10.127-17.663-14.543-74.938-6.057
				c0,0-48.964,10.797-55.792,32.072C816.522,835.609,863.229,829.736,907.673,814.049z"/>
			<path fill="#FCB31D" d="M771.585,824.344c-0.313,0.994-0.581,2.006-0.697,3.051c-0.536,4.383-1.179,9.709-1.757,15.572
				c45.167,5.309,94.85-0.512,140.268-20.82c-0.531-2.789-1.104-5.496-1.726-8.098C863.229,829.736,816.522,835.609,771.585,824.344
				z"/>
			<path fill="#F26952" d="M915.626,867.92c-1.437-9.727-3.055-29-6.228-45.773c-45.418,20.309-95.101,26.129-140.268,20.82
				c-0.225,2.258-0.417,4.617-0.61,7.02c37.95,37.777,91.871,47.148,143.188,42.254C916.952,885.115,916.895,876.535,915.626,867.92
				z"/>
			<path fill="#F1583A" d="M781.718,915.654c8.236,7.176,78.926-3.051,106.781-10.221c12.084-3.109,19.2-7.725,23.209-13.193
				c-51.316,4.895-105.237-4.477-143.188-42.254C766.696,873.719,767.217,903.014,781.718,915.654z"/>
			<g>
				<path fill="#3B328C" d="M848.853,730.895l-18.662-16.111c-1.058-0.906-2.617-0.631-3.482,0.619l-15.728,22.555
					c-0.877,1.254-0.731,3.006,0.332,3.912l18.665,16.113c1.046,0.914,2.609,0.631,3.479-0.621l15.722-22.557
					C850.048,733.559,849.896,731.807,848.853,730.895z M824.951,748.033c-1.216,0.143-2.325-3.922-2.483-9.064
					c-0.162-5.143,0.678-9.424,1.897-9.557c1.206-0.137,2.309,3.92,2.477,9.066C827,743.617,826.155,747.898,824.951,748.033z
					 M834.828,745.197c-1.204,0.135-2.313-3.922-2.476-9.072c-0.158-5.133,0.687-9.416,1.886-9.551
					c1.212-0.143,2.32,3.924,2.479,9.064C836.882,740.783,836.041,745.059,834.828,745.197z"/>
			</g>
			<g>
				<path fill="#FFCC72" d="M850.011,729.109l-18.657-16.104c-1.06-0.916-2.617-0.631-3.483,0.613l-15.731,22.564
					c-0.876,1.244-0.733,2.994,0.331,3.91l18.662,16.111c1.054,0.906,2.609,0.635,3.486-0.621l15.723-22.557
					C851.211,731.779,851.059,730.029,850.011,729.109z M826.105,746.26c-1.205,0.133-2.316-3.924-2.475-9.072
					c-0.163-5.145,0.685-9.426,1.891-9.559c1.208-0.135,2.32,3.922,2.481,9.066C828.163,741.846,827.318,746.123,826.105,746.26z
					 M835.991,743.418c-1.196,0.137-2.314-3.926-2.476-9.064c-0.159-5.148,0.685-9.426,1.891-9.559
					c1.203-0.135,2.306,3.922,2.474,9.068C838.04,739,837.195,743.283,835.991,743.418z"/>
			</g>
		</g>
	</g>
	<g>
		<path fill="#E2A52B" d="M453.561,82.602c0,0-71.535-8.842-97.116,62s-5.081,67.397-22.581,93.87s-31.333,58.959-17.577,95.027
			s-0.923,44.996-7.423,69.47s-2,53.945,22.5,56.71h18l2.5-15.768l7,18.078c0,0,78.869,9.601,145.685,5.028
			s142.601,1.018,157.958-5.028s31.182-20.045,25.52-49.045s-13.775-32.945-11.469-61.973s-8.756-41.43-16.475-67.229
			s-3.781-52.299,0-91.799s-24.65-107.086-82.935-120.793S488.257,57.76,453.561,82.602z"/>
		<g>
			<path fill="#EAC274" d="M421.326,129.429c0,0-1.15,0.645-3.306,1.853c-1.068,0.621-2.345,1.455-3.867,2.397
				c-1.459,1.038-3.204,2.138-5.006,3.578c-3.668,2.786-7.918,6.462-12.247,11.2c-0.538,0.595-1.084,1.199-1.638,1.813
				c-0.55,0.618-1.068,1.28-1.615,1.932c-1.108,1.294-2.159,2.697-3.235,4.138c-1.096,1.425-2.092,2.98-3.178,4.523
				c-0.982,1.612-2.083,3.203-3.02,4.939c-3.952,6.819-7.355,14.745-9.664,23.476c-1.196,4.357-2.015,8.938-2.606,13.64
				c-0.582,4.705-0.854,9.556-0.731,14.48c0.215,9.84,1.784,20.015,5.1,29.811c1.611,4.915,3.675,9.736,5.149,14.822
				c1.467,5.04,2.444,10.492,1.287,15.815c-0.15,0.658-0.286,1.321-0.531,1.953l-0.329,0.958l-0.083,0.239
				c-0.003,0.015-0.04,0.115-0.057,0.145l-0.053,0.111l-0.212,0.447c-0.296,0.592-0.535,1.196-0.878,1.779l-1.084,1.736
				c-1.561,2.201-3.465,4.1-5.478,5.821c-4.039,3.441-8.515,6.195-12.37,9.608c-1.915,1.71-3.662,3.587-5.064,5.688l-0.98,1.615
				c-0.269,0.54-0.568,1.143-0.821,1.712c-0.465,1.146-0.879,2.333-1.16,3.554c-1.166,4.886-0.86,9.968-0.011,14.788
				c0.849,4.839,2.352,9.472,3.66,14.048c1.317,4.573,2.49,9.125,2.906,13.679c0.05,1.141,0.203,2.27,0.166,3.397
				c-0.052,1.129-0.03,2.243-0.145,3.36c-0.191,2.182-0.687,4.363-1.258,6.419c-1.226,4.123-3.021,7.88-4.94,11.347
				c-3.821,6.946-8.07,12.866-10.759,18.691c-1.354,2.903-2.386,5.729-3.115,8.405c-0.718,2.679-1.106,5.209-1.238,7.504
				c-0.299,4.612,0.659,8.208,1.61,10.469c0.253,0.563,0.478,1.06,0.67,1.489c0.239,0.406,0.44,0.747,0.603,1.022
				c0.324,0.55,0.491,0.834,0.491,0.834s-0.17-0.282-0.501-0.828c-0.166-0.273-0.371-0.613-0.615-1.017
				c-0.199-0.428-0.429-0.923-0.689-1.484c-0.979-2.254-1.984-5.854-1.737-10.494c0.106-2.309,0.467-4.858,1.158-7.562
				c0.702-2.699,1.707-5.554,3.036-8.491c2.639-5.905,6.824-11.883,10.615-18.799c1.895-3.456,3.656-7.186,4.848-11.252
				c0.556-2.052,1.025-4.116,1.213-6.326c0.105-1.072,0.08-2.184,0.127-3.286c0.033-1.106-0.124-2.219-0.176-3.34
				c-0.428-4.482-1.605-8.989-2.937-13.545c-1.323-4.563-2.851-9.2-3.734-14.108c-0.877-4.876-1.221-10.056-0.039-15.111
				c0.285-1.26,0.706-2.492,1.201-3.716c0.265-0.6,0.533-1.147,0.834-1.755l1.012-1.683c1.447-2.186,3.242-4.126,5.189-5.878
				c3.916-3.492,8.396-6.273,12.342-9.668c1.968-1.695,3.806-3.549,5.29-5.658l1.006-1.618c0.324-0.552,0.573-1.18,0.863-1.767
				l0.21-0.448l0.053-0.112c0.022-0.043,0.007-0.023,0.031-0.085l0.077-0.229l0.309-0.913c0.234-0.601,0.354-1.234,0.502-1.86
				c1.125-5.06,0.222-10.36-1.21-15.341c-1.431-5.019-3.475-9.851-5.079-14.807c-3.307-9.899-4.846-20.16-5.023-30.073
				c-0.104-4.96,0.19-9.844,0.794-14.579c0.614-4.731,1.457-9.338,2.678-13.72c2.363-8.79,5.813-16.733,9.816-23.58
				c3.936-6.895,8.51-12.612,12.888-17.321c4.4-4.704,8.704-8.34,12.41-11.089c1.822-1.421,3.582-2.503,5.054-3.525
				c1.536-0.927,2.823-1.746,3.898-2.354C420.169,130.061,421.326,129.429,421.326,129.429z"/>
		</g>
		<g>
			<path fill="#EAC274" d="M579.099,106.21c0,0,1.392,0.643,4.001,1.847c2.548,1.325,6.338,3.206,10.803,6.196
				c4.472,2.963,9.715,6.896,15.081,12.121c5.347,5.229,10.904,11.675,15.781,19.511c4.931,7.786,9.155,16.944,12.138,27.088
				c2.973,10.14,4.618,21.281,4.555,32.816c-0.036,5.766-0.51,11.629-1.473,17.489c-0.274,1.464-0.521,2.916-0.82,4.402
				c-0.348,1.447-0.696,2.897-1.046,4.351c-0.355,1.453-0.687,2.914-1.064,4.37c-0.414,1.448-0.828,2.9-1.244,4.354
				c-1.61,5.838-3.494,11.614-4.908,17.542c-0.792,2.936-1.449,5.919-1.955,8.932c-0.505,2.994-0.883,6.026-1.037,9.065
				c-0.35,6.067,0.102,12.216,1.843,18.005c1.616,5.857,4.893,11.029,7.3,16.611c1.211,2.78,2.262,5.667,2.702,8.688l0.161,1.129
				l0.07,1.14c0.075,0.758,0.013,1.519,0,2.278c-0.036,0.804-0.181,1.492-0.266,2.242c-0.084,0.734-0.338,1.479-0.501,2.216
				c-0.819,2.915-2.199,5.581-3.755,8.072c-1.56,2.494-3.294,4.829-4.972,7.158c-1.674,2.33-3.323,4.646-4.679,7.096
				c-1.359,2.443-2.424,5.019-2.992,7.685c-0.584,2.688-0.698,5.377-0.468,8.057c0.254,2.666,0.819,5.266,1.532,7.786
				c1.434,5.046,3.471,9.758,5.276,14.376c0.899,2.313,1.806,4.58,2.506,6.885c0.344,1.146,0.748,2.258,1.034,3.403
				c0.289,1.144,0.575,2.276,0.859,3.396c0.982,4.51,1.576,8.9,1.834,13.097c0.03,1.05,0.061,2.087,0.09,3.11
				c0.012,0.511,0.023,1.02,0.035,1.524c-0.014,0.504-0.027,1.005-0.041,1.502c-0.029,0.995-0.059,1.975-0.087,2.94
				c-0.077,0.962-0.153,1.911-0.229,2.844c-0.632,7.469-2.251,13.843-3.957,18.927c-1.685,5.108-3.639,8.869-4.91,11.441
				c-1.422,2.498-2.181,3.83-2.181,3.83s0.745-1.339,2.142-3.851c1.246-2.584,3.159-6.359,4.79-11.474
				c1.652-5.09,3.201-11.461,3.756-18.905c0.065-0.93,0.132-1.874,0.199-2.833c0.02-0.961,0.038-1.937,0.058-2.926
				c0.009-0.495,0.018-0.994,0.026-1.495c-0.018-0.502-0.034-1.007-0.051-1.516c-0.039-1.017-0.079-2.047-0.119-3.092
				c-0.297-4.169-0.884-8.531-1.881-13.005c-0.284-1.107-0.571-2.227-0.861-3.357c-0.285-1.131-0.696-2.25-1.044-3.393
				c-0.697-2.273-1.61-4.535-2.515-6.838c-1.817-4.604-3.879-9.321-5.347-14.417c-0.729-2.545-1.313-5.181-1.581-7.901
				c-0.25-2.705-0.133-5.545,0.452-8.263c0.575-2.749,1.663-5.4,3.039-7.891c1.372-2.5,3.03-4.843,4.7-7.185
				c1.673-2.339,3.39-4.669,4.918-7.131c1.523-2.456,2.859-5.074,3.633-7.867c0.151-0.707,0.391-1.373,0.474-2.115
				c0.08-0.723,0.23-1.5,0.252-2.182c0.009-0.728,0.069-1.458-0.007-2.187l-0.071-1.095l-0.159-1.089
				c-0.434-2.911-1.466-5.726-2.67-8.464c-1.207-2.744-2.62-5.421-3.956-8.161c-1.317-2.747-2.655-5.54-3.44-8.532
				c-1.798-5.914-2.281-12.178-1.939-18.333c0.167-3.083,0.56-6.145,1.083-9.187c0.519-3.026,1.189-6.021,1.998-8.98
				c1.442-5.954,3.354-11.75,4.973-17.543c0.419-1.446,0.837-2.889,1.254-4.328c0.382-1.451,0.719-2.914,1.078-4.365
				c0.354-1.453,0.708-2.902,1.062-4.347c0.275-1.452,0.55-2.9,0.823-4.344c0.976-5.813,1.467-11.633,1.521-17.361
				c0.103-11.459-1.495-22.54-4.416-32.632c-2.93-10.091-7.099-19.212-11.98-26.981c-4.842-7.799-10.303-14.271-15.576-19.539
				c-5.297-5.26-10.488-9.235-14.923-12.238c-4.429-3.03-8.194-4.947-10.729-6.296C580.484,106.867,579.099,106.21,579.099,106.21z"
				/>
		</g>
		<g>
			<path fill="#EAC274" d="M599.819,305.586c0,0,0.512,0.319,1.428,0.977c0.889,0.695,2.146,1.805,3.389,3.523
				c1.236,1.713,2.441,4.029,3.261,6.871c0.398,1.423,0.708,2.968,0.902,4.617c0.168,1.651,0.206,3.401,0.084,5.22
				c-0.043,0.454-0.086,0.913-0.13,1.376c-0.075,0.459-0.151,0.922-0.229,1.39c-0.162,0.926-0.28,1.873-0.553,2.825
				c-0.439,1.925-1.053,3.856-1.759,5.814c-1.432,3.912-3.348,7.862-5.403,11.881c-2.046,4.022-4.177,8.169-5.866,12.563
				c-1.681,4.373-2.938,9.072-3.035,13.779c0.046,1.197-0.007,2.422,0.115,3.595l0.195,1.755l0.1,0.876l0.169,0.874
				c0.226,1.164,0.423,2.332,0.758,3.468l0.451,1.712l0.538,1.684c1.449,4.481,3.35,8.734,5.175,12.863
				c1.835,4.124,3.545,8.167,4.779,12.145c1.258,3.967,1.953,7.885,2.134,11.511c0.044,1.831-0.066,3.575-0.298,5.218
				c-0.253,1.641-0.627,3.172-1.073,4.581c-0.924,2.809-2.202,5.083-3.495,6.755c-1.297,1.678-2.587,2.748-3.494,3.417
				c-0.936,0.632-1.455,0.937-1.455,0.937s0.513-0.319,1.43-0.972c0.887-0.69,2.143-1.789,3.385-3.483
				c1.239-1.689,2.444-3.969,3.285-6.761c0.822-2.792,1.294-6.093,1.154-9.658c-0.23-3.583-0.968-7.415-2.268-11.322
				c-1.275-3.914-3.039-7.896-4.877-12.015c-1.842-4.116-3.777-8.389-5.269-12.926l-0.555-1.706l-0.468-1.741
				c-0.346-1.154-0.554-2.348-0.79-3.537l-0.176-0.893l-0.109-0.912l-0.209-1.829c-0.129-1.218-0.084-2.41-0.132-3.617
				c0.124-4.95,1.44-9.688,3.166-14.134c1.736-4.452,3.899-8.609,5.963-12.621c2.057-4.013,4.028-7.896,5.495-11.743
				c0.725-1.924,1.357-3.825,1.812-5.691c0.279-0.918,0.414-1.874,0.589-2.795c0.082-0.458,0.163-0.912,0.244-1.361
				c0.049-0.454,0.098-0.902,0.146-1.347c0.297-3.568-0.052-6.876-0.774-9.698c-0.736-2.822-1.869-5.141-3.051-6.869
				c-1.188-1.733-2.41-2.869-3.277-3.583C600.323,305.918,599.819,305.586,599.819,305.586z"/>
		</g>
		<g>
			<path fill="#EAC274" d="M401.948,288.039c0,0-0.421,0.372-1.211,1.068c-0.78,0.708-1.826,1.841-3.006,3.404
				c-1.121,1.604-2.32,3.672-3.285,6.219c-0.97,2.542-1.711,5.542-2.098,8.865c-0.394,3.322-0.395,6.975,0.109,10.772
				c0.095,0.953,0.308,1.887,0.483,2.872c0.201,0.967,0.325,1.974,0.596,2.94c0.245,0.974,0.492,1.959,0.742,2.953
				c0.245,0.995,0.583,1.984,0.874,2.99c1.216,4.014,2.732,8.085,4.298,12.22c1.543,4.142,3.171,8.344,4.483,12.662
				c1.302,4.326,2.303,8.753,2.764,13.192c0.475,4.429,0.385,8.88-0.476,13.061c-0.791,4.214-2.593,7.985-4.508,11.349
				c-1.927,3.366-3.937,6.408-5.476,9.388c-1.581,2.948-2.612,5.871-3.096,8.544c-0.519,2.671-0.459,5.078-0.138,7.001
				c0.358,1.921,0.962,3.363,1.501,4.263c0.229,0.475,0.502,0.78,0.641,1.014c0.153,0.225,0.231,0.341,0.231,0.341
				s-0.083-0.113-0.243-0.333c-0.146-0.229-0.43-0.527-0.676-0.995c-0.567-0.886-1.241-2.314-1.646-4.253
				c-0.375-1.938-0.497-4.378-0.039-7.101c0.42-2.728,1.393-5.726,2.962-8.737c1.51-3.035,3.483-6.125,5.34-9.488
				c1.841-3.354,3.533-7.07,4.294-11.163c0.818-4.08,0.887-8.438,0.398-12.79c-0.472-4.359-1.487-8.731-2.79-12.998
				c-1.278-4.287-2.878-8.479-4.401-12.63c-1.544-4.142-3.048-8.242-4.254-12.295c-0.289-1.018-0.622-2.01-0.868-3.024
				c-0.243-1.015-0.483-2.02-0.721-3.014c-0.26-0.993-0.366-1.985-0.553-2.96c-0.158-0.967-0.363-1.948-0.445-2.919
				c-0.452-3.866-0.395-7.567,0.055-10.929c0.432-3.365,1.262-6.388,2.31-8.933c1.041-2.552,2.304-4.61,3.474-6.198
				c1.222-1.549,2.329-2.647,3.127-3.33C401.515,288.396,401.948,288.039,401.948,288.039z"/>
		</g>
		<path fill="#E2A52B" d="M442.548,102.314c-8.391-7.057-14.044-18.15-15.262-29.996c-0.362-3.49,0.488-8.192,3.568-8.573
			c2.746-0.332,4.438,3.17,5.384,6.104c2.576,8.029,5.159,16.067,7.731,24.093c-0.186-9.106-0.367-18.214-0.554-27.321
			c-0.055-2.994,0.192-6.629,2.536-8.044c1.701-1.036,3.896-0.31,5.267,1.206c1.37,1.505,2.075,3.628,2.598,5.718
			c2.61,10.385,1.698,21.908-2.511,31.705"/>
		<g>
			<path fill="#ECB845" d="M329.147,442.105c0,0-0.261-0.321-0.766-0.943c-0.484-0.638-1.304-1.508-2.185-2.785
				c-1.814-2.511-4.24-6.412-6.327-11.828c-2.063-5.4-3.773-12.366-3.725-20.475c-0.046-8.061,1.786-17.333,6.707-26.051
				c2.468-4.339,5.59-8.485,8.508-12.952c2.903-4.451,5.617-9.357,6.669-14.921c0.535-2.761,0.679-5.629,0.5-8.519
				c-0.189-2.89-0.688-5.792-1.368-8.683c-1.363-5.791-3.444-11.528-5.355-17.438c-1.883-5.903-3.693-12.051-4.002-18.516
				c-0.142-3.226,0.101-6.484,0.898-9.69c0.42-1.542,0.919-3.131,1.574-4.64c0.612-1.523,1.377-2.979,2.159-4.421
				c3.188-5.745,7.346-10.889,10.49-16.628c0.404-0.711,0.771-1.439,1.128-2.174l0.272-0.548l0.229-0.549l0.469-1.146l0.938-2.293
				l0.712-2.334c0.983-3.103,1.512-6.37,1.928-9.618c0.747-6.533,0.496-13.152,0.048-19.708c-0.461-6.563-1.17-13.096-1.563-19.614
				c-0.401-6.495-0.464-13.062,0.417-19.397c0.864-6.379,2.535-12.529,4.836-18.324c4.627-11.595,11.769-21.614,19.931-29.569
				c1.002-1.017,2.06-1.96,3.117-2.89c0.537-0.461,1.022-0.949,1.597-1.383c0.548-0.429,1.094-0.855,1.639-1.281
				c1.059-0.883,2.238-1.618,3.373-2.385c1.121-0.796,2.314-1.438,3.474-2.117c4.675-2.651,9.461-4.696,14.145-6.367
				c4.686-1.673,9.291-2.948,13.723-3.895c4.432-0.949,8.688-1.613,12.714-1.964c1.009-0.064,1.999-0.161,2.976-0.196
				c0.979-0.015,1.939-0.068,2.884-0.05c1.878,0.057,3.744,0.067,5.413,0.731c0.836,0.3,1.582,0.811,2.157,1.44
				c0.577,0.634,0.959,1.398,1.203,2.169c0.455,1.563,0.474,3.117,0.444,4.563c-0.093,2.9-0.363,5.471-0.394,7.719
				c-0.038,2.246,0.094,4.16,0.351,5.688c0.249,1.532,0.622,2.666,0.864,3.428c0.289,0.748,0.438,1.133,0.438,1.133
				s-0.153-0.384-0.448-1.129c-0.249-0.76-0.633-1.892-0.896-3.425c-0.272-1.529-0.421-3.445-0.404-5.697
				c0.011-2.252,0.256-4.833,0.322-7.721c0.018-1.439-0.02-2.98-0.477-4.497c-0.45-1.512-1.609-2.871-3.252-3.433
				c-1.61-0.626-3.456-0.626-5.323-0.664c-0.938-0.01-1.895,0.053-2.866,0.076c-0.971,0.043-1.957,0.149-2.959,0.222
				c-4.005,0.387-8.238,1.087-12.643,2.073c-4.405,0.981-8.99,2.248-13.646,3.933c-4.655,1.677-9.406,3.726-14.034,6.37
				c-1.146,0.677-2.332,1.319-3.428,2.104c-1.116,0.76-2.267,1.478-3.331,2.371c-0.542,0.427-1.087,0.855-1.634,1.286
				c-0.536,0.406-1.04,0.912-1.564,1.365c-1.046,0.926-2.093,1.866-3.085,2.878c-8.078,7.922-15.13,17.889-19.677,29.39
				c-2.26,5.741-3.897,11.857-4.728,18.136c-0.857,6.329-0.769,12.757-0.352,19.253c0.412,6.488,1.141,13.014,1.625,19.6
				c0.468,6.58,0.751,13.252,0.007,19.887c-0.436,3.307-0.976,6.601-2,9.803l-0.745,2.403l-0.945,2.29l-0.472,1.144
				c-0.085,0.2-0.144,0.361-0.25,0.592l-0.279,0.559c-0.367,0.749-0.745,1.491-1.157,2.212c-3.219,5.825-7.392,10.952-10.546,16.602
				c-1.578,2.84-2.873,5.735-3.687,8.869c-0.771,3.062-1.028,6.272-0.897,9.421c0.28,6.333,2.047,12.433,3.907,18.322
				c1.886,5.898,3.958,11.661,5.315,17.51c0.678,2.921,1.174,5.862,1.356,8.799c0.173,2.934,0.018,5.867-0.54,8.689
				c-1.092,5.67-3.875,10.652-6.804,15.112c-2.948,4.48-6.074,8.607-8.532,12.897c-4.874,8.615-6.782,17.774-6.815,25.788
				c-0.123,8.058,1.516,15.011,3.523,20.413c2.03,5.418,4.417,9.337,6.205,11.861c0.869,1.284,1.681,2.162,2.159,2.805
				C328.89,441.782,329.147,442.105,329.147,442.105z"/>
		</g>
		<g>
			<path fill="#ECB845" d="M639.615,479.661c0,0,0.287-0.361,0.844-1.06c0.278-0.349,0.624-0.783,1.035-1.299
				c0.205-0.258,0.427-0.536,0.664-0.834c0.22-0.312,0.454-0.645,0.702-0.999c0.496-0.708,1.049-1.498,1.658-2.368
				c0.557-0.904,1.164-1.892,1.82-2.959c1.266-2.161,2.598-4.718,3.909-7.663c0.629-1.483,1.258-3.063,1.875-4.731
				c0.549-1.694,1.2-3.442,1.667-5.329c1.07-3.733,1.864-7.874,2.336-12.332c0.471-4.456,0.619-9.25,0.151-14.258
				c-0.439-5.004-1.452-10.218-2.988-15.518c-1.494-5.318-3.313-10.795-4.739-16.608c-0.687-2.912-1.256-5.911-1.564-8.996
				c-0.308-3.084-0.246-6.264,0.257-9.424c0.216-1.595,0.671-3.13,1.132-4.709c0.287-0.751,0.553-1.509,0.859-2.261
				c0.349-0.742,0.685-1.496,1.049-2.234c1.497-2.923,3.373-5.665,5.327-8.363c1.955-2.701,4.003-5.368,5.847-8.2
				c1.839-2.826,3.475-5.841,4.461-9.108c0.999-3.244,1.257-6.773,0.807-10.175c-0.447-3.436-1.581-6.784-3.029-10.001
				c-2.911-6.452-6.999-12.427-10.301-18.938c-1.669-3.259-3.05-6.665-3.988-10.251c-0.951-3.572-1.507-7.24-1.743-10.934
				c-0.483-7.396,0.326-14.833,1.72-22.097c1.398-7.285,3.479-14.379,5.513-21.439c2.032-7.061,4.027-14.098,5.405-21.204
				c0.73-3.545,1.188-7.122,1.531-10.683c0.098-1.782,0.194-3.559,0.292-5.331c-0.044-1.79-0.087-3.574-0.13-5.353
				c-0.44-7.041-1.936-13.958-4.223-20.442c-4.603-12.995-12.188-24.319-20.968-33.383c-4.409-4.528-9.106-8.527-13.933-12.001
				c-1.226-0.842-2.44-1.677-3.645-2.504c-1.247-0.766-2.482-1.526-3.706-2.278c-1.213-0.782-2.483-1.411-3.707-2.108
				c-0.616-0.34-1.229-0.678-1.838-1.015c-0.616-0.325-1.244-0.623-1.86-0.933c-9.861-4.99-19.521-8.215-28.169-10.606
				c-8.677-2.329-16.396-3.746-22.766-4.76c-6.374-1.018-11.419-1.558-14.853-1.959c-3.44-0.349-5.275-0.535-5.275-0.535
				s1.836,0.171,5.279,0.492c3.438,0.373,8.488,0.871,14.874,1.836c6.382,0.962,14.119,2.316,22.833,4.577
				c8.686,2.317,18.407,5.47,28.318,10.475c0.62,0.31,1.25,0.606,1.871,0.932c0.614,0.337,1.232,0.676,1.854,1.017
				c1.231,0.696,2.521,1.332,3.732,2.108c1.229,0.751,2.471,1.51,3.724,2.275c1.214,0.829,2.438,1.665,3.674,2.508
				c4.865,3.48,9.602,7.49,14.052,12.035c8.86,9.097,16.536,20.476,21.22,33.578c2.327,6.547,3.857,13.498,4.325,20.672
				c0.049,1.779,0.097,3.563,0.145,5.353c-0.093,1.802-0.186,3.609-0.278,5.421c-0.337,3.597-0.789,7.208-1.513,10.779
				c-1.367,7.159-3.353,14.23-5.363,21.295c-2.014,7.063-4.065,14.156-5.436,21.372c-1.404,7.204-2.223,14.56-1.767,21.849
				c0.415,7.281,2.223,14.442,5.577,20.851c3.247,6.454,7.325,12.449,10.262,18.999c1.46,3.268,2.613,6.694,3.063,10.232
				c0.456,3.555,0.177,7.129-0.862,10.494c-1.025,3.361-2.707,6.432-4.575,9.284c-1.873,2.858-3.935,5.527-5.89,8.212
				c-1.955,2.683-3.817,5.391-5.296,8.26c-0.357,0.719-0.684,1.446-1.026,2.166c-0.306,0.742-0.576,1.506-0.864,2.254
				c-0.438,1.501-0.9,3.032-1.112,4.584c-0.501,3.094-0.572,6.218-0.277,9.264c0.296,3.046,0.852,6.02,1.525,8.915
				c1.4,5.783,3.202,11.262,4.686,16.6c1.523,5.333,2.548,10.575,2.947,15.624c0.429,5.044,0.239,9.863-0.271,14.336
				c-0.51,4.475-1.342,8.625-2.446,12.361c-0.484,1.889-1.152,3.638-1.717,5.332c-0.633,1.668-1.275,3.247-1.918,4.728
				c-1.34,2.941-2.694,5.491-3.979,7.645c-0.666,1.063-1.282,2.046-1.848,2.947c-0.616,0.866-1.177,1.652-1.679,2.357
				c-0.252,0.352-0.488,0.683-0.711,0.993c-0.24,0.296-0.464,0.573-0.671,0.829c-0.415,0.512-0.765,0.943-1.046,1.291
				C639.905,479.302,639.615,479.661,639.615,479.661z"/>
		</g>
	</g>
	<path fill="#2591B7" d="M465.727,367.202h98.8v20.452c0,0-2.606,13.723-7.094,13.723s-29.029,1.584-30.876,1.584
		c-1.85,0-35.893-0.265-36.684,0c-0.792,0.265-6.33-5.664-8.443-5.867c-2.112-0.202-10.029-7.064-10.558-7.856
		c-0.525-0.791-1.055-4.027-2.375-5.84C467.181,381.584,465.727,367.202,465.727,367.202z"/>
	<polygon fill="#ECD0C4" points="477.999,350.971 477.999,410.348 545.014,406.389 545.014,358.096 	"/>
	<path fill="#E8A487" d="M553.864,362.444c0,0-40.682,18.286-76.299,2.562l0.49,12.444
		C478.055,377.45,521.757,386.354,553.864,362.444z"/>
	<g>
		<path fill="#ECD0C4" d="M414.694,251.243c9.003,17.643,3.973,39.038-11.233,47.787c-15.205,8.752-34.832,1.541-43.833-16.102
			c-9.003-17.644-3.974-39.038,11.233-47.785C386.065,226.391,405.695,233.602,414.694,251.243z"/>
		<path opacity="0.35" fill="#E74D4E" d="M401.977,258.265c5.307,10.399,2.344,23.015-6.624,28.175
			c-8.966,5.159-20.536,0.905-25.842-9.495c-5.31-10.402-2.348-23.019,6.618-28.177
			C385.096,243.612,396.667,247.861,401.977,258.265z"/>
	</g>
	<g>
		<path fill="#ECD0C4" d="M664.983,258.925c0.542,18.372-12.038,34.483-28.096,35.986c-16.057,1.507-29.515-12.169-30.055-30.539
			c-0.541-18.372,12.038-34.483,28.096-35.985C650.985,226.881,664.445,240.558,664.983,258.925z"/>
		<path opacity="0.35" fill="#E74D4E" d="M651.671,259.934c0.319,10.829-7.096,20.33-16.567,21.218
			c-9.467,0.887-17.398-7.177-17.717-18.006c-0.32-10.832,7.095-20.335,16.563-21.221
			C643.417,241.041,651.352,249.101,651.671,259.934z"/>
	</g>
	<path fill="#F9C1B9" d="M427.245,135.194c32.419,3.785,64.895,7.048,97.494,8.782c22.492,1.197,45.033,1.655,67.586,1.785
		c16.713,18.159,31.285,40.976,35.562,67.733c11.628,72.734,5.624,138.903-103.51,155.813
		c-109.137,16.899-146.291-68.434-134.503-166.224C393.56,172.535,408.476,150.735,427.245,135.194z"/>
	<path fill="#74DBF5" d="M435.25,387.654c0,0-17.683,0.792-27.709,14.777c-10.029,13.986-41.959,74.946-41.959,74.946l58.597,12.956
		c0,0,31.39-50.43,29.28-55.707C451.347,429.349,435.25,387.654,435.25,387.654z"/>
	<path fill="#74DBF5" d="M595.459,387.654c0,0,17.684,0.792,27.709,14.777c10.029,13.986,41.96,74.946,41.96,74.946l-58.598,12.956
		c0,0-31.389-50.43-29.28-55.707C579.362,429.349,595.459,387.654,595.459,387.654z"/>
	<polygon fill="#FFFFFF" points="320.981,580.527 391.707,525.936 519.432,525.936 519.432,592.438 	"/>
	<path fill="#F0F5F7" d="M320.981,580.527c0,0,114.006-21.338,198.451,11.91l-181.958,1.172l-11.875-9.098L320.981,580.527z"/>
	<path fill="#F0F5F7" d="M320.981,585.313c0,0,117.173-22.166,198.451,7.125H326.39L320.981,585.313z"/>
	<path fill="#3B328C" d="M320.981,613.021l5.279-6.332l43.673-16.627l80.752-6.73l21.771,5.938l40.095,8.906l6.88,8.514v3.561
		C519.432,610.25,448.18,593.627,320.981,613.021z"/>
	<path fill="#143C77" d="M464.144,385.41c0,0-28.896-3.167-30.084,0s-14.25,155.172-14.25,155.172l192.38-7.918
		c0,0-13.458-147.297-16.625-148.662c-3.167-1.363-30.48,0-30.48,0s-31.271,18.824-57.001,15.262
		C482.353,395.702,464.144,385.41,464.144,385.41z"/>
	<path fill="#74DBF5" d="M511.506,476.323c26.135,4.487,51.197-90.972,51.197-90.972l0,0c-7.756,4.24-33.118,16.892-54.62,13.913
		c-25.73-3.563-43.939-13.854-43.939-13.854s-0.649-0.071-1.741-0.179l0,0C462.403,385.231,485.374,471.835,511.506,476.323z"/>
	<path fill="#074EA3" d="M495.415,420.245l9.501,20.584h17.256l9.203-20.584l-9.178-20.984c0,0-9.421,0.74-14.114,0.004
		L495.415,420.245z"/>
	<polygon fill="#074EA3" points="522.172,440.829 529.195,486.879 499.903,490.333 495.415,487.144 504.916,440.829 	"/>
	<path fill="#FFFFFF" d="M326.26,606.689l-5.279-17.418c0,0,120.34-21.639,198.451,3.166v14.252
		C519.432,606.689,428.654,585.578,326.26,606.689z"/>
	<polygon fill="#FFFFFF" points="717.884,580.527 647.16,525.936 519.432,525.936 519.432,592.438 	"/>
	<path fill="#F0F5F7" d="M717.884,580.527c0,0-114.007-21.338-198.452,11.91l181.959,1.172l11.879-9.098L717.884,580.527z"/>
	<path fill="#F0F5F7" d="M717.884,585.313c0,0-117.174-22.166-198.452,7.125h193.043L717.884,585.313z"/>
	<path fill="#3B328C" d="M717.884,613.021l-5.279-6.332l-43.673-16.627l-80.752-6.73l-21.771,5.938l-40.096,8.906l-6.881,8.514
		v3.561C519.432,610.25,590.685,593.627,717.884,613.021z"/>
	<path fill="#FFFFFF" d="M712.604,606.689l5.279-17.418c0,0-120.337-21.639-198.452,3.166v14.252
		C519.432,606.689,610.214,585.578,712.604,606.689z"/>
	<path fill="#41AFDE" d="M465.727,367.202c0,0,5.542,25.334,42.356,32.063c0,0-5.146,26.918-21.178,27.709
		C470.873,427.765,455.435,394.119,465.727,367.202z"/>
	<path fill="#41AFDE" d="M564.527,367.202c0,0-5.542,25.334-42.355,32.063c0,0,5.146,26.918,21.178,27.709
		C559.382,427.765,574.819,394.119,564.527,367.202z"/>
	<path fill="#ECD0C4" d="M659.339,478.311l8.708,32.063c0,0,6.532-1.979,8.511,11.479c0,0,5.344-9.5,11.479-7.718
		c6.136,1.781,4.354,16.626,4.354,16.626s6.928-8.709,12.47-5.939c5.541,2.771-1.188,32.855-8.313,35.033s-8.511-5.74-8.511-5.74
		s-8.313,4.553-10.292-6.531c0,0-3.76,9.699-8.906,7.918c-5.146-1.781-6.136-7.721-6.136-7.721s-6.927,4.75-14.25,0.99
		s-7.496-22.836-7.496-22.836h-28.768l-4.001-35.602L659.339,478.311z"/>
	<path fill="#DDBBAF" d="M520.691,489.225c0,0,23.413-3.798,31.726-0.104c8.313,3.693,25.73,23.619,22.168,26.522
		c-3.563,2.901-44.465-15.875-44.465-15.875L520.691,489.225z"/>
	<g>
		<g>
			<path fill="#FFDB00" d="M584.292,533.057l-71.005-91.806c0,0-7.749,0.331-9.896,6.794l70.977,92.036l17.491,14.158
				L584.292,533.057z"/>
			<path fill="#FFA667" d="M584.292,533.057l-1.008-1.34c-0.919,0.422-1.859,1.131-2.743,2.285c0,0-3.776-1.428-4.62,3.875
				c0,0-1.324,0.186-2.57,0.848l1.018,1.355l17.491,14.158L584.292,533.057z"/>
			<path fill="#FFDB00" d="M591.859,554.238l-3.717-10.406c-0.938-0.014-2.057,0.059-2.552,0.428
				c-0.922,0.693-1.843,1.391-1.843,1.391l-0.795,1.375L591.859,554.238z"/>
			<path fill="#68240A" d="M591.859,554.238l-3.717-10.406c-0.938-0.014-2.057,0.059-2.552,0.428
				c-0.922,0.693-1.843,1.391-1.843,1.391l-0.795,1.375L591.859,554.238z"/>
			<path opacity="0.6" fill="#FFDB00" d="M508.853,442.354l71.688,91.648l11.117,20.07l0.201,0.166l-7.567-21.182l-71.005-91.806
				C513.287,441.25,511.179,441.351,508.853,442.354z"/>
			<path fill="#FFDB00" d="M575.921,537.877l-71.033-92.576c-0.609,0.766-1.135,1.662-1.496,2.743l70.977,92.036l17.491,14.158
				l-0.071-0.207C587.991,550.264,575.921,537.877,575.921,537.877z"/>
		</g>
		<path fill="#FD7A76" d="M521.715,452.422l-8.428-11.172c0,0-7.749,0.331-9.896,6.794l8.742,11.635
			C514.169,455.303,519.157,453.308,521.715,452.422z"/>
		<path opacity="0.5" fill="#FFBDC1" d="M520.471,452.881c0.192-0.604,0.264-1.225,0.192-1.851l-2.282-3.026
			c-1.574,0.928-6.739,3.812-8.69,3.011c-1.604-0.655-3.059-4.421-3.424-7.104c-1.202,0.978-2.266,2.302-2.875,4.133l8.742,11.635
			C513.875,455.932,517.777,453.934,520.471,452.881z"/>
		<path fill="#FFFFFF" d="M509.753,456.51l2.381,3.169c2.035-4.376,7.023-6.371,9.581-7.257l-2.419-3.207
			C516.191,450.159,511.222,452.29,509.753,456.51z"/>
		<path opacity="0.3" fill="#9483FF" d="M509.753,456.51l2.381,3.169c2.035-4.376,7.023-6.371,9.581-7.257l-2.419-3.207
			C516.191,450.159,511.222,452.29,509.753,456.51z"/>
		<path opacity="0.3" fill="#9483FF" d="M521.715,452.422l-0.838-1.11c-2.057,0.186-5.286,3.398-7.911,3.909
			c-2.416,0.469,0.578-2.507,3.154-4.8c-2.61,1.217-5.344,3.144-6.367,6.089l2.381,3.169
			C514.169,455.303,519.157,453.308,521.715,452.422z"/>
		<path fill="#FF2E59" d="M519.296,449.215c-0.565-0.611-1.101-1.251-1.651-1.877c-0.544-0.628-1.058-1.283-1.589-1.924
			c-1.064-1.282-2.094-2.587-3.103-3.91l0.331,0.166c-0.485,0.013-1.018,0.072-1.521,0.158c-0.51,0.076-1.014,0.193-1.512,0.329
			c-0.251,0.065-0.489,0.161-0.736,0.238c-0.251,0.073-0.482,0.186-0.721,0.278c-0.244,0.085-0.473,0.207-0.702,0.323
			c-0.231,0.114-0.461,0.232-0.675,0.378c-0.213,0.137-0.451,0.252-0.652,0.411l-0.618,0.468c-0.198,0.164-0.374,0.354-0.565,0.532
			c-0.198,0.172-0.365,0.37-0.523,0.575c-0.154,0.207-0.346,0.395-0.494,0.609l-0.43,0.662c-0.155,0.213-0.264,0.456-0.378,0.697
			l-0.364,0.714c0.164-0.504,0.277-1.044,0.52-1.529l0.35-0.735c0.123-0.243,0.284-0.466,0.436-0.693
			c0.151-0.23,0.309-0.453,0.501-0.652c0.186-0.204,0.358-0.419,0.554-0.613l0.615-0.556c0.204-0.187,0.442-0.329,0.665-0.496
			c0.22-0.169,0.46-0.305,0.705-0.437c0.241-0.138,0.479-0.275,0.735-0.382c0.254-0.108,0.498-0.243,0.762-0.326
			c0.263-0.088,0.52-0.193,0.782-0.266c0.528-0.155,1.067-0.288,1.61-0.376c0.548-0.094,1.083-0.143,1.664-0.15l0.205-0.004
			l0.129,0.172c0.993,1.331,1.967,2.678,2.904,4.054c0.474,0.688,0.958,1.362,1.413,2.06
			C518.396,447.814,518.863,448.502,519.296,449.215z"/>
	</g>
	<path fill="#ECD0C4" d="M369.803,478.311c0,0-11.746,29.811,1.317,46.437c13.063,16.625,124.295,19,124.295,19
		s11.051,11.742,17.137,12.799c6.089,1.055,11.364-7.652,11.364-7.652s7.654,1.848,13.988-1.584
		c6.333-3.432-2.375-15.043-2.375-15.043s11.346,9.502,17.417,8.314c6.07-1.188,12.138-10.689,3.43-17.287
		c-8.709-6.597-16.36-9.236-16.36-9.236s18.732,7.125,27.84,11.611c9.104,4.488,17.287,7.125,20.979,5.016
		c3.695-2.111-6.6-15.04-20.979-24.279c-14.381-9.237-30.131-16.686-40.244-17.417c-10.115-0.731-31.667,4.487-44.597,15.834
		l-58.836-14.49L369.803,478.311z"/>
	<ellipse opacity="0.5" fill="#E8A487" cx="577.148" cy="298.071" rx="28.981" ry="19.444"/>
	<ellipse opacity="0.5" fill="#E8A487" cx="435.412" cy="298.071" rx="28.981" ry="19.444"/>
	<g>
		<path fill="#E2A52B" d="M383.443,245.659c0,0-15.865-74.727,15.225-104.624c31.083-29.901,103.377-45.723,142.896-28.683
			c39.52,17.036,83.678,24.711,86.73,63.493c3.046,38.781-10.376,90.33-10.376,90.33s-19.9-28.14-25.144-32.705
			c-5.249-4.568-7.019-31.585-9.378-36.751c-2.357-5.157-5.454,28.515-5.454,28.515s-26.038-4.469-36.937-9.168
			c-10.906-4.701-11.898-40.138-11.898-40.138s-0.068,36.675-4.862,37.516c-4.803,0.851-61.31-0.938-66.598-5.058
			c-5.291-4.127-11.167-37.834-11.167-37.834s1.648,38.641-4.253,41.168C436.328,214.242,395.179,256.708,383.443,245.659z"/>
		<g>
			<path fill="#EAC274" d="M529.163,99.849c0,0,0.832,0.088,2.394,0.254c1.558,0.187,3.859,0.328,6.741,0.889
				c0.723,0.124,1.484,0.253,2.283,0.39c0.801,0.13,1.637,0.273,2.493,0.496c1.718,0.414,3.587,0.823,5.566,1.333
				c1.953,0.597,4.046,1.195,6.23,1.896c1.075,0.398,2.179,0.807,3.308,1.225c1.122,0.437,2.303,0.806,3.441,1.345
				c2.289,1.045,4.745,1.988,7.131,3.289c1.208,0.619,2.438,1.248,3.686,1.886c1.21,0.708,2.438,1.427,3.684,2.156
				c0.623,0.365,1.25,0.732,1.881,1.103c0.62,0.387,1.225,0.808,1.844,1.214c1.232,0.821,2.481,1.652,3.743,2.492
				c1.212,0.911,2.437,1.832,3.673,2.761c0.614,0.471,1.245,0.926,1.853,1.416c0.595,0.506,1.192,1.014,1.793,1.523
				c4.88,3.991,9.464,8.652,13.782,13.66c4.369,4.982,8.173,10.553,11.63,16.328l2.464,4.375c0.742,1.511,1.483,3.02,2.223,4.526
				c0.779,1.49,1.371,3.053,2.032,4.583c0.636,1.54,1.336,3.049,1.854,4.622c0.557,1.557,1.111,3.108,1.664,4.652
				c0.496,1.562,0.939,3.132,1.408,4.684c0.227,0.778,0.471,1.549,0.68,2.326c0.188,0.783,0.375,1.564,0.562,2.342
				c0.36,1.558,0.77,3.094,1.081,4.637c0.545,3.102,1.215,6.13,1.517,9.15c0.177,1.505,0.407,2.987,0.532,4.462
				c0.108,1.477,0.215,2.936,0.319,4.375c0.047,0.72,0.118,1.433,0.144,2.144c0.015,0.711,0.029,1.417,0.043,2.118
				c0.028,1.401,0.057,2.781,0.084,4.138c-0.066,2.712-0.13,5.335-0.272,7.847c-0.242,2.505-0.365,4.917-0.68,7.188
				c-0.346,2.267-0.605,4.428-0.972,6.438c-0.404,2.002-0.783,3.877-1.133,5.61c-0.398,1.721-0.843,3.285-1.202,4.705
				c-0.361,1.421-0.694,2.686-1.071,3.762c-0.35,1.083-0.647,2.004-0.889,2.751c-0.482,1.494-0.74,2.29-0.74,2.29
				s0.243-0.801,0.698-2.303c0.228-0.751,0.508-1.677,0.838-2.766c0.357-1.081,0.667-2.351,1.001-3.777
				c0.333-1.425,0.748-2.993,1.114-4.717c0.317-1.735,0.661-3.611,1.027-5.616c0.329-2.01,0.549-4.169,0.852-6.433
				c0.272-2.268,0.383-4.67,0.595-7.166c0.115-2.502,0.152-5.114,0.19-7.813c-0.041-1.35-0.083-2.722-0.126-4.116
				c-0.021-0.697-0.042-1.399-0.063-2.106c-0.033-0.706-0.111-1.416-0.165-2.13c-0.119-1.43-0.24-2.879-0.362-4.346
				c-0.139-1.465-0.385-2.937-0.575-4.43c-0.34-2.995-0.995-6.004-1.552-9.082c-0.315-1.532-0.728-3.056-1.09-4.602
				c-0.188-0.771-0.376-1.546-0.565-2.323c-0.21-0.771-0.456-1.536-0.683-2.308c-0.471-1.539-0.916-3.096-1.414-4.645
				c-0.554-1.53-1.109-3.068-1.668-4.612c-0.52-1.559-1.22-3.054-1.855-4.58c-0.66-1.514-1.255-3.067-2.028-4.533
				c-0.734-1.485-1.471-2.973-2.208-4.462l-2.477-4.366c-3.395-5.713-7.155-11.267-11.47-16.218
				c-4.268-4.981-8.801-9.624-13.631-13.601c-0.594-0.508-1.186-1.015-1.774-1.519c-0.602-0.488-1.227-0.942-1.834-1.412
				c-1.221-0.932-2.431-1.855-3.627-2.769c-1.245-0.847-2.476-1.685-3.692-2.512c-0.61-0.41-1.207-0.835-1.819-1.225
				c-0.623-0.374-1.242-0.746-1.856-1.114c-1.23-0.737-2.444-1.464-3.64-2.181c-1.234-0.647-2.449-1.285-3.645-1.912
				c-2.36-1.319-4.792-2.28-7.059-3.344c-2.291-1.012-4.569-1.782-6.688-2.635c-2.16-0.736-4.233-1.37-6.171-2
				c-1.962-0.543-3.818-0.984-5.524-1.429c-0.851-0.238-1.682-0.396-2.477-0.54c-0.794-0.15-1.552-0.294-2.27-0.43
				c-2.865-0.613-5.167-0.796-6.721-1.011C529.994,99.953,529.163,99.849,529.163,99.849z"/>
		</g>
		<g>
			<path fill="#EAC274" d="M436.409,123.002c0,0-1.554,1.126-4.272,3.099c-0.669,0.506-1.464,0.998-2.229,1.659
				c-0.771,0.653-1.604,1.36-2.494,2.115c-0.888,0.754-1.833,1.558-2.829,2.404c-0.935,0.916-1.917,1.879-2.943,2.884
				c-0.513,0.501-1.037,1.014-1.571,1.535c-0.267,0.261-0.536,0.524-0.808,0.79c-0.251,0.285-0.505,0.572-0.762,0.862
				c-1.022,1.16-2.08,2.359-3.167,3.592c-1.128,1.198-2.097,2.587-3.153,3.95c-0.524,0.685-1.054,1.377-1.589,2.076
				c-0.544,0.692-1.086,1.396-1.563,2.156c-0.992,1.492-2.001,3.009-3.022,4.544c-0.533,0.753-0.975,1.57-1.438,2.38
				c-0.462,0.81-0.926,1.624-1.393,2.44c-0.466,0.817-0.934,1.637-1.403,2.459c-0.442,0.837-0.835,1.703-1.257,2.557
				c-0.812,1.721-1.704,3.414-2.456,5.169c-0.727,1.767-1.454,3.534-2.178,5.294c-0.178,0.441-0.37,0.877-0.536,1.322l-0.453,1.349
				c-0.301,0.898-0.602,1.793-0.901,2.685c-0.299,0.892-0.598,1.78-0.895,2.664c-0.305,0.882-0.491,1.793-0.741,2.681
				c-0.469,1.784-0.933,3.546-1.389,5.279c-0.34,1.759-0.675,3.49-1.003,5.183c-0.166,0.847-0.329,1.685-0.491,2.512
				c-0.106,0.836-0.212,1.663-0.316,2.478c-0.208,1.631-0.411,3.217-0.607,4.752c-0.137,1.54-0.187,3.035-0.279,4.468
				c-0.067,1.433-0.192,2.807-0.202,4.115c0.012,1.309,0.024,2.551,0.035,3.717c0.011,1.168,0.021,2.261,0.03,3.272
				c0.044,1.009,0.15,1.932,0.211,2.769c0.267,3.347,0.419,5.26,0.419,5.26s-0.223-1.907-0.613-5.243
				c-0.085-0.836-0.219-1.759-0.292-2.769c-0.04-1.013-0.082-2.108-0.127-3.278c-0.045-1.171-0.093-2.417-0.144-3.731
				c-0.028-1.314,0.083-2.695,0.122-4.137c0.067-1.44,0.09-2.946,0.2-4.498c0.169-1.547,0.345-3.146,0.524-4.791
				c0.09-0.822,0.182-1.656,0.274-2.5c0.148-0.836,0.298-1.682,0.449-2.537c0.315-1.709,0.637-3.455,0.965-5.231
				c0.449-1.749,0.905-3.527,1.367-5.328c0.246-0.896,0.43-1.816,0.731-2.706c0.293-0.893,0.589-1.79,0.885-2.69
				c0.296-0.901,0.594-1.805,0.893-2.712l0.449-1.362c0.165-0.449,0.355-0.89,0.532-1.335c0.721-1.779,1.444-3.565,2.167-5.352
				c0.77-1.766,1.679-3.469,2.508-5.2c0.43-0.857,0.832-1.728,1.282-2.569c0.478-0.827,0.955-1.651,1.43-2.472
				c0.475-0.821,0.948-1.638,1.418-2.452c0.472-0.813,0.922-1.633,1.464-2.39c1.039-1.542,2.064-3.065,3.074-4.563
				c0.485-0.763,1.035-1.47,1.587-2.164c0.548-0.698,1.091-1.389,1.628-2.072c1.089-1.354,2.088-2.733,3.247-3.92
				c1.116-1.222,2.202-2.41,3.252-3.559c0.263-0.287,0.523-0.571,0.781-0.854c0.278-0.262,0.554-0.522,0.827-0.78
				c0.546-0.516,1.082-1.021,1.607-1.517c1.05-0.989,2.057-1.937,3.014-2.838c1.028-0.823,2.002-1.604,2.918-2.337
				c0.915-0.731,1.772-1.416,2.564-2.048c0.786-0.64,1.594-1.107,2.278-1.594C434.815,124.071,436.409,123.002,436.409,123.002z"/>
		</g>
		<g>
			<path fill="#EAC274" d="M513.729,111.703c0,0,1.433,0.691,3.938,1.901c0.617,0.321,1.335,0.608,2.053,1.046
				c0.723,0.428,1.505,0.892,2.341,1.387c0.836,0.498,1.726,1.027,2.664,1.586c0.888,0.633,1.821,1.298,2.795,1.992
				c0.487,0.348,0.984,0.704,1.491,1.065c0.253,0.182,0.508,0.365,0.766,0.55c0.243,0.204,0.488,0.409,0.735,0.617
				c0.989,0.829,2.012,1.687,3.063,2.568c1.085,0.847,2.044,1.885,3.087,2.88c0.514,0.506,1.033,1.017,1.558,1.533l0.787,0.781
				c0.254,0.271,0.49,0.56,0.738,0.841c0.98,1.133,1.978,2.285,2.986,3.451c1.008,1.167,1.872,2.474,2.829,3.723
				c0.468,0.633,0.938,1.268,1.409,1.905c0.424,0.669,0.849,1.341,1.274,2.014c0.83,1.366,1.736,2.665,2.511,4.097
				c0.73,1.413,1.461,2.825,2.188,4.231c0.384,0.691,0.689,1.429,0.997,2.162c0.311,0.731,0.62,1.46,0.929,2.187
				c0.309,0.726,0.615,1.449,0.921,2.169c0.293,0.724,0.513,1.469,0.77,2.195c0.494,1.461,0.98,2.904,1.46,4.323
				c0.375,1.45,0.744,2.876,1.105,4.271c0.17,0.7,0.364,1.387,0.51,2.075c0.123,0.693,0.244,1.378,0.364,2.054
				c0.239,1.35,0.472,2.664,0.697,3.935c0.163,1.279,0.271,2.522,0.4,3.711c0.106,1.191,0.278,2.327,0.315,3.417
				c0.026,1.089,0.051,2.123,0.074,3.094c0.022,0.97,0.044,1.878,0.063,2.718c-0.012,0.839-0.071,1.61-0.1,2.306
				c-0.151,2.78-0.238,4.368-0.238,4.368s0.016-1.59,0.044-4.372c0.003-0.695,0.036-1.463,0.019-2.3
				c-0.05-0.836-0.104-1.74-0.16-2.706c-0.058-0.965-0.118-1.991-0.183-3.074c-0.074-1.081-0.26-2.208-0.395-3.389
				c-0.155-1.179-0.288-2.41-0.477-3.676c-0.251-1.256-0.511-2.555-0.777-3.89c-0.133-0.667-0.268-1.343-0.404-2.028
				c-0.158-0.679-0.366-1.356-0.55-2.046c-0.373-1.378-0.753-2.787-1.14-4.219c-0.485-1.402-0.978-2.827-1.477-4.269
				c-0.26-0.717-0.482-1.455-0.776-2.166c-0.306-0.706-0.613-1.415-0.922-2.127c-0.308-0.712-0.617-1.427-0.928-2.144
				c-0.307-0.719-0.609-1.44-1.001-2.133c-0.737-1.402-1.477-2.809-2.217-4.217c-0.727-1.369-1.634-2.695-2.438-4.04
				c-0.416-0.668-0.831-1.336-1.245-2.001c-0.462-0.633-0.922-1.264-1.381-1.893c-0.938-1.241-1.782-2.541-2.771-3.702
				c-0.99-1.161-1.968-2.308-2.931-3.436c-0.243-0.28-0.475-0.568-0.724-0.838l-0.774-0.778c-0.511-0.519-1.018-1.033-1.519-1.541
				c-1.011-1.007-1.939-2.059-2.996-2.918c-1.023-0.896-2.02-1.769-2.982-2.612c-0.241-0.211-0.479-0.42-0.717-0.628
				c-0.251-0.189-0.5-0.376-0.747-0.562c-0.495-0.37-0.98-0.733-1.457-1.089c-0.951-0.713-1.862-1.396-2.729-2.046
				c-0.91-0.586-1.773-1.142-2.585-1.664c-0.813-0.522-1.575-1.01-2.279-1.462c-0.699-0.462-1.409-0.775-2.014-1.118
				C515.129,112.457,513.729,111.703,513.729,111.703z"/>
		</g>
		<g>
			<path fill="#EAC274" d="M560.757,144.602c0,0,0.63,0.859,1.733,2.363c0.267,0.382,0.591,0.785,0.89,1.262
				c0.297,0.479,0.618,0.997,0.962,1.55c0.344,0.555,0.71,1.145,1.097,1.767c0.351,0.641,0.692,1.33,1.064,2.041
				c0.354,0.719,0.781,1.443,1.119,2.239c0.346,0.794,0.703,1.615,1.07,2.458c0.391,0.835,0.701,1.729,1.026,2.64
				c0.321,0.912,0.675,1.836,0.957,2.801c0.538,1.936,1.138,3.927,1.524,6.005c0.495,2.055,0.732,4.191,1.058,6.311
				c0.155,2.14,0.379,4.275,0.353,6.389c0.088,2.111-0.079,4.186-0.161,6.193c-0.083,1.001-0.202,1.983-0.317,2.943
				c-0.058,0.48-0.115,0.955-0.172,1.423c-0.068,0.467-0.167,0.924-0.247,1.377c-0.169,0.904-0.333,1.784-0.492,2.635
				c-0.167,0.849-0.407,1.652-0.596,2.432c-0.204,0.776-0.375,1.526-0.582,2.226c-0.235,0.693-0.458,1.35-0.667,1.967
				c-0.209,0.616-0.404,1.193-0.586,1.726c-0.188,0.53-0.409,1-0.583,1.433c-0.731,1.716-1.149,2.697-1.149,2.697
				s0.352-1.005,0.968-2.765c0.149-0.44,0.344-0.918,0.504-1.455c0.151-0.54,0.315-1.124,0.491-1.747
				c0.175-0.623,0.361-1.285,0.559-1.984c0.158-0.708,0.324-1.452,0.499-2.229c0.161-0.779,0.373-1.581,0.512-2.427
				c0.13-0.847,0.264-1.723,0.402-2.623c0.064-0.45,0.148-0.904,0.2-1.368c0.041-0.465,0.082-0.936,0.125-1.412
				c0.072-0.953,0.201-1.921,0.267-2.911c0.06-1.984,0.203-4.032,0.094-6.115c0.005-2.085-0.243-4.189-0.413-6.297
				c-0.299-2.092-0.509-4.203-0.978-6.234c-0.358-2.055-0.931-4.025-1.44-5.943c-0.264-0.957-0.62-1.867-0.898-2.781
				c-0.293-0.91-0.571-1.803-0.931-2.64c-0.336-0.846-0.663-1.669-0.98-2.466c-0.31-0.8-0.708-1.528-1.037-2.252
				c-0.343-0.718-0.671-1.407-0.982-2.062c-0.35-0.635-0.681-1.237-0.992-1.802c-0.312-0.567-0.604-1.098-0.874-1.589
				c-0.271-0.49-0.575-0.911-0.821-1.306C561.329,145.501,560.757,144.602,560.757,144.602z"/>
		</g>
		<g>
			<path fill="#EAC274" d="M473.037,124.304c0,0,1.042,0.859,2.866,2.364c0.446,0.387,0.974,0.778,1.487,1.273
				c0.516,0.494,1.074,1.027,1.67,1.597c0.597,0.571,1.233,1.18,1.902,1.821c0.621,0.687,1.274,1.409,1.955,2.163
				c0.664,0.769,1.427,1.512,2.087,2.388c0.68,0.86,1.383,1.749,2.105,2.663c0.75,0.896,1.404,1.899,2.106,2.902
				c0.686,1.014,1.438,2.019,2.08,3.116c0.65,1.094,1.313,2.205,1.981,3.331c0.686,1.117,1.232,2.328,1.864,3.505
				c0.306,0.594,0.613,1.19,0.922,1.788c0.299,0.603,0.553,1.229,0.833,1.844c0.538,1.24,1.118,2.469,1.625,3.729
				c0.465,1.275,0.931,2.551,1.394,3.821c0.498,1.259,0.804,2.576,1.211,3.848c0.834,2.542,1.325,5.131,1.936,7.6
				c0.216,1.253,0.428,2.486,0.636,3.693c0.099,0.604,0.196,1.201,0.293,1.791c0.062,0.595,0.122,1.183,0.182,1.762
				c0.119,1.159,0.235,2.286,0.348,3.376c0.08,1.092,0.099,2.153,0.148,3.167c0.031,1.016,0.106,1.987,0.097,2.913
				c-0.027,0.925-0.054,1.803-0.077,2.628c-0.024,0.824-0.047,1.595-0.068,2.308c-0.04,0.712-0.12,1.364-0.17,1.953
				c-0.233,2.353-0.366,3.698-0.366,3.698s0.063-1.349,0.172-3.71c0.025-0.589,0.078-1.241,0.088-1.952
				c-0.008-0.711-0.018-1.48-0.028-2.302c-0.01-0.821-0.021-1.694-0.032-2.615c-0.027-0.92-0.116-1.885-0.176-2.893
				c-0.075-1.007-0.121-2.058-0.228-3.14c-0.139-1.079-0.283-2.195-0.431-3.341c-0.074-0.573-0.148-1.154-0.225-1.742
				c-0.11-0.583-0.223-1.172-0.336-1.769c-0.221-1.192-0.445-2.411-0.675-3.65c-0.627-2.44-1.133-5-1.98-7.509
				c-0.414-1.256-0.727-2.556-1.23-3.798c-0.469-1.253-0.938-2.512-1.408-3.77c-0.491-1.25-1.056-2.47-1.577-3.701
				c-0.271-0.611-0.518-1.233-0.809-1.832c-0.301-0.594-0.6-1.187-0.898-1.776c-0.615-1.17-1.146-2.375-1.815-3.485
				c-0.653-1.12-1.299-2.226-1.935-3.313c-0.623-1.096-1.374-2.086-2.019-3.113c-0.671-1.011-1.294-2.023-2.014-2.928
				c-0.694-0.925-1.369-1.824-2.022-2.694c-0.633-0.887-1.37-1.641-2.01-2.421c-0.656-0.768-1.284-1.504-1.882-2.204
				c-0.638-0.663-1.242-1.291-1.811-1.882c-0.569-0.592-1.102-1.146-1.595-1.658c-0.491-0.515-1.002-0.928-1.432-1.333
				C474.033,125.217,473.037,124.304,473.037,124.304z"/>
		</g>
		<g>
			<path fill="#EAC274" d="M436.545,148.101c0,0-0.301,0.867-0.828,2.383c-0.269,0.756-0.596,1.674-0.972,2.727
				c-0.188,0.527-0.387,1.087-0.598,1.678c-0.171,0.601-0.352,1.233-0.54,1.892c-0.373,1.317-0.778,2.743-1.206,4.252
				c-0.237,0.747-0.396,1.538-0.553,2.348c-0.171,0.806-0.346,1.629-0.524,2.466c-0.355,1.674-0.782,3.392-0.973,5.182
				c-0.245,1.779-0.495,3.586-0.744,5.394c-0.138,1.819-0.275,3.639-0.41,5.43c-0.194,1.79-0.125,3.56-0.14,5.27
				c-0.003,0.856-0.007,1.698-0.01,2.521c-0.005,0.412-0.011,0.82-0.017,1.223c0.007,0.402,0.045,0.799,0.065,1.19
				c0.097,1.567,0.189,3.049,0.274,4.417c0.045,0.685,0.088,1.341,0.129,1.964c0.079,0.62,0.154,1.208,0.225,1.761
				c0.141,1.107,0.264,2.072,0.366,2.867c0.191,1.595,0.3,2.506,0.3,2.506s-0.179-0.899-0.492-2.473
				c-0.15-0.79-0.333-1.749-0.542-2.848c-0.105-0.551-0.217-1.137-0.334-1.755c-0.092-0.621-0.137-1.281-0.211-1.966
				c-0.137-1.373-0.286-2.861-0.443-4.434c-0.035-0.394-0.088-0.792-0.11-1.198c-0.01-0.405-0.02-0.816-0.03-1.231
				c-0.012-0.831-0.025-1.679-0.038-2.542c-0.007-1.726-0.097-3.513,0.076-5.32c0.115-1.81,0.232-3.649,0.349-5.488
				c0.274-1.822,0.548-3.645,0.818-5.438c0.215-1.803,0.667-3.533,1.046-5.217c0.196-0.84,0.388-1.667,0.577-2.476
				s0.379-1.599,0.647-2.347c0.489-1.506,0.951-2.931,1.377-4.245c0.218-0.654,0.406-1.29,0.622-1.878
				c0.246-0.577,0.479-1.124,0.699-1.638c0.439-1.028,0.821-1.924,1.136-2.663C436.178,148.942,436.545,148.101,436.545,148.101z"/>
		</g>
	</g>
	<g>
		<g>
			<path fill="#F1583A" d="M752.722,526.958l1.582,0.245l-3.474,1.461c-0.166,0.055-0.221,0.168-0.133,0.261
				c0.094,0.093,0.298,0.127,0.469,0.075l2.768-0.844l1.004,0.996l-2.768,0.849c-0.167,0.05-0.227,0.163-0.134,0.263
				c0.096,0.086,0.299,0.115,0.464,0.064l2.775-0.84l0.937,0.936l-2.764,0.839c-0.176,0.052-0.225,0.167-0.138,0.261
				c0.095,0.094,0.296,0.126,0.474,0.074l2.767-0.843l0.834,0.829l-4.172,1.27c-0.376,0.113-0.514,0.377-0.305,0.58
				c0.214,0.209,0.685,0.287,1.063,0.18l4.168-1.277l1.049,1.035l-2.774,0.849c-0.169,0.047-0.231,0.163-0.137,0.253
				c0.094,0.096,0.302,0.131,0.474,0.072l2.773-0.838l1.135,1.137l-2.767,0.842c-0.165,0.055-0.22,0.169-0.132,0.26
				c0.094,0.09,0.298,0.127,0.464,0.072l2.768-0.843l1.124,1.109l-2.772,0.841c-0.173,0.049-0.228,0.168-0.134,0.262
				c0.094,0.088,0.303,0.127,0.468,0.074l2.771-0.84l1.008,0.992l-2.774,0.846c-0.176,0.049-0.226,0.164-0.132,0.256
				c0.095,0.094,0.298,0.123,0.465,0.076l2.776-0.844l0.937,0.936l-2.772,0.842c-0.165,0.057-0.225,0.168-0.132,0.26
				c0.095,0.094,0.305,0.129,0.475,0.074l2.762-0.848l1.142,1.133l-4.173,1.266c-0.376,0.117-0.514,0.375-0.305,0.586
				c0.209,0.205,0.685,0.285,1.059,0.168l4.171-1.266l1.047,1.033l-2.773,0.842c-0.167,0.057-0.222,0.17-0.133,0.258
				c0.093,0.096,0.304,0.125,0.468,0.076l2.769-0.844l1.147,1.143l-2.774,0.842c-0.159,0.047-0.22,0.162-0.132,0.256
				c0.095,0.096,0.303,0.127,0.469,0.072l2.771-0.842l1.111,1.109l-2.759,0.84c-0.175,0.051-0.229,0.168-0.143,0.262
				c0.088,0.09,0.304,0.127,0.47,0.074l2.777-0.84l0.992,0.996l-2.766,0.844c-0.168,0.049-0.229,0.168-0.134,0.254
				c0.094,0.096,0.304,0.131,0.468,0.076l2.768-0.844l0.943,0.936l-2.768,0.844c-0.172,0.047-0.227,0.166-0.139,0.256
				c0.1,0.092,0.298,0.127,0.469,0.074l2.778-0.846l1.125,1.133l-4.173,1.268c-0.368,0.115-0.506,0.377-0.292,0.584
				c0.21,0.209,0.684,0.287,1.06,0.174l4.172-1.266l1.043,1.029l-2.773,0.84c-0.171,0.053-0.226,0.164-0.139,0.262
				c0.096,0.086,0.304,0.121,0.47,0.072l2.769-0.84l1.15,1.139l-2.773,0.84c-0.164,0.055-0.219,0.166-0.137,0.256
				c0.094,0.094,0.309,0.121,0.475,0.078l2.773-0.842l1.108,1.105l-2.775,0.846c-0.159,0.047-0.22,0.164-0.122,0.256
				c0.091,0.096,0.301,0.131,0.459,0.072l2.775-0.838l1.007,0.992l-2.771,0.848c-0.166,0.049-0.226,0.168-0.133,0.254
				c0.092,0.092,0.298,0.125,0.469,0.074l2.772-0.84l0.933,0.934l-2.769,0.84c-0.166,0.051-0.226,0.17-0.132,0.262
				c0.093,0.09,0.304,0.125,0.468,0.074l2.77-0.844l1.141,1.131l-4.176,1.266c-0.379,0.119-0.517,0.377-0.302,0.586
				c0.209,0.205,0.685,0.285,1.064,0.168l4.174-1.27l1.03,1.039l-2.762,0.84c-0.17,0.053-0.233,0.164-0.137,0.26
				c0.092,0.088,0.302,0.123,0.467,0.072l2.775-0.84l1.144,1.141l-2.778,0.838c-0.159,0.051-0.219,0.168-0.124,0.258
				c0.087,0.092,0.296,0.129,0.462,0.074l2.768-0.844l1.124,1.109l-2.771,0.844c-0.173,0.049-0.228,0.168-0.139,0.258
				c0.094,0.09,0.304,0.123,0.474,0.082l2.774-0.848l0.998,0.994l-2.779,0.846c-0.159,0.049-0.215,0.17-0.128,0.26
				c0.102,0.09,0.304,0.125,0.463,0.072l2.779-0.844l0.944,0.938l-2.779,0.84c-0.165,0.057-0.227,0.166-0.133,0.258
				c0.101,0.098,0.309,0.129,0.475,0.076l2.768-0.84l1.136,1.123l-4.174,1.268c-0.375,0.119-0.506,0.379-0.298,0.588
				c0.209,0.211,0.684,0.287,1.058,0.166l4.175-1.27l1.035,1.037l-2.767,0.844c-0.165,0.053-0.226,0.164-0.139,0.252
				c0.096,0.1,0.305,0.135,0.476,0.078l2.767-0.84l1.143,1.137l-2.768,0.842c-0.166,0.051-0.226,0.17-0.139,0.256
				c0.101,0.092,0.302,0.131,0.474,0.08l2.773-0.842l1.109,1.105l-2.773,0.848c-0.158,0.043-0.215,0.162-0.128,0.254
				c0.09,0.09,0.298,0.131,0.47,0.074l2.767-0.84l1.004,0.996l-2.767,0.844c-0.166,0.049-0.232,0.166-0.14,0.254
				c0.102,0.098,0.304,0.133,0.476,0.076l2.768-0.846l0.943,0.939l-2.779,0.836c-0.161,0.053-0.216,0.17-0.127,0.266
				c0.088,0.086,0.298,0.123,0.469,0.072l2.772-0.848l1.136,1.133l-4.174,1.268c-0.38,0.119-0.512,0.377-0.31,0.584
				c0.229,0.209,0.686,0.287,1.065,0.17l4.169-1.27l1.054,1.035l-2.784,0.84c-0.16,0.055-0.217,0.17-0.128,0.264
				c0.093,0.092,0.298,0.121,0.468,0.072l2.772-0.842l1.148,1.141l-2.779,0.84c-0.165,0.051-0.221,0.168-0.126,0.258
				c0.087,0.09,0.298,0.127,0.462,0.072l2.774-0.842l1.119,1.111l-2.779,0.846c-0.159,0.051-0.225,0.164-0.125,0.254
				c0.087,0.088,0.304,0.129,0.462,0.082l2.773-0.848l0.998,0.992l-2.768,0.844c-0.167,0.053-0.227,0.166-0.132,0.258
				c0.094,0.092,0.296,0.125,0.463,0.072l2.777-0.838l0.939,0.936l-2.77,0.842c-0.17,0.049-0.231,0.166-0.133,0.26
				c0.095,0.088,0.304,0.123,0.47,0.072l2.768-0.838l1.136,1.123l-4.179,1.27c-0.37,0.117-0.503,0.375-0.298,0.582
				c0.214,0.207,0.689,0.287,1.063,0.17l4.169-1.266l1.042,1.033l-2.772,0.846c-0.16,0.043-0.214,0.164-0.133,0.254
				c0.1,0.088,0.31,0.129,0.476,0.074l2.767-0.84l1.142,1.141l-2.769,0.838c-0.166,0.051-0.226,0.168-0.134,0.256
				c0.086,0.094,0.3,0.129,0.47,0.082l2.77-0.842l1.113,1.104l-2.768,0.838c-0.167,0.053-0.222,0.172-0.139,0.264
				c0.095,0.088,0.31,0.123,0.47,0.074l2.773-0.842l0.376,0.365l-21.346,7.227l-63.192-62.799L752.722,526.958z"/>
			<path fill="#F1583A" d="M800.7,594.834l-5.327,1.621l-62.628-62.235l8.469-2.752C754.375,554.012,776.656,575.217,800.7,594.834z
				"/>
			<path fill="#F26952" d="M741.214,531.468l13.09-4.265l0.875,0.879l-2.767,0.837c-0.166,0.054-0.228,0.17-0.132,0.259
				c0.093,0.096,0.302,0.129,0.468,0.078l2.769-0.843l1.008,0.999l-2.772,0.844c-0.171,0.045-0.226,0.16-0.128,0.252
				c0.091,0.094,0.298,0.125,0.464,0.076l2.773-0.84l0.938,0.935l-2.775,0.837c-0.164,0.055-0.226,0.17-0.127,0.263
				c0.089,0.089,0.299,0.126,0.47,0.076l2.767-0.84l0.834,0.821l-4.169,1.273c-0.375,0.113-0.513,0.372-0.303,0.584
				c0.205,0.205,0.683,0.285,1.059,0.168l4.168-1.27l1.044,1.037l-2.77,0.84c-0.17,0.049-0.225,0.166-0.138,0.26
				c0.093,0.096,0.309,0.126,0.475,0.076l2.768-0.842l1.142,1.134l-2.769,0.845c-0.165,0.051-0.227,0.164-0.126,0.259
				c0.087,0.091,0.297,0.122,0.463,0.073l2.769-0.844l1.123,1.111l-2.772,0.846c-0.176,0.043-0.227,0.16-0.139,0.254
				c0.09,0.088,0.298,0.125,0.464,0.074l2.779-0.842l0.997,0.994l-2.767,0.848c-0.167,0.051-0.227,0.164-0.133,0.26
				c0.093,0.084,0.304,0.125,0.468,0.066l2.773-0.836l0.937,0.932l-2.771,0.84c-0.171,0.053-0.229,0.168-0.132,0.256
				c0.093,0.096,0.302,0.131,0.466,0.082l2.775-0.84l1.131,1.123l-4.177,1.27c-0.373,0.113-0.5,0.373-0.294,0.584
				c0.203,0.205,0.692,0.285,1.062,0.168l4.169-1.27l1.043,1.043l-2.77,0.838c-0.164,0.053-0.229,0.164-0.136,0.248
				c0.088,0.098,0.304,0.139,0.467,0.09l2.775-0.848l1.146,1.141l-2.774,0.84c-0.159,0.049-0.225,0.162-0.132,0.254
				c0.087,0.094,0.298,0.125,0.464,0.076l2.772-0.844l1.119,1.111l-2.778,0.844c-0.166,0.055-0.221,0.164-0.132,0.252
				c0.093,0.092,0.303,0.129,0.468,0.078l2.774-0.846l1.008,1l-2.778,0.846c-0.162,0.053-0.221,0.164-0.133,0.256
				c0.091,0.096,0.303,0.121,0.469,0.076l2.772-0.844l0.934,0.936l-2.769,0.838c-0.166,0.053-0.221,0.168-0.133,0.266
				c0.094,0.086,0.31,0.123,0.469,0.072l2.772-0.846l1.137,1.129l-4.173,1.27c-0.374,0.111-0.504,0.375-0.298,0.584
				c0.203,0.207,0.683,0.279,1.063,0.168l4.164-1.27l1.047,1.037l-2.78,0.844c-0.165,0.047-0.22,0.166-0.126,0.256
				s0.299,0.125,0.463,0.074l2.779-0.838l1.136,1.135l-2.767,0.844c-0.167,0.049-0.229,0.16-0.13,0.26
				c0.085,0.086,0.292,0.119,0.465,0.07l2.769-0.842l1.125,1.111l-2.774,0.842c-0.177,0.047-0.226,0.168-0.133,0.258
				c0.083,0.088,0.298,0.127,0.465,0.082l2.773-0.848l0.993,0.996l-2.77,0.842c-0.16,0.047-0.22,0.162-0.126,0.256
				c0.087,0.096,0.303,0.123,0.463,0.076l2.771-0.846l0.943,0.934l-2.766,0.848c-0.173,0.047-0.233,0.162-0.144,0.254
				c0.098,0.094,0.303,0.125,0.467,0.078l2.775-0.848l1.139,1.131l-4.178,1.271c-0.375,0.109-0.503,0.375-0.298,0.584
				c0.215,0.205,0.682,0.281,1.064,0.17l4.168-1.271l1.042,1.035l-2.773,0.838c-0.164,0.063-0.228,0.17-0.127,0.264
				c0.088,0.098,0.297,0.125,0.465,0.074l2.771-0.84l1.144,1.139l-2.769,0.84c-0.165,0.049-0.226,0.17-0.132,0.254
				c0.092,0.096,0.302,0.129,0.463,0.078l2.772-0.84l1.113,1.107l-2.772,0.842c-0.165,0.047-0.228,0.166-0.126,0.26
				c0.088,0.086,0.297,0.125,0.467,0.072l2.77-0.84l1.002,0.992l-2.773,0.84c-0.166,0.055-0.219,0.168-0.132,0.262
				c0.089,0.096,0.298,0.125,0.475,0.076l2.769-0.84l0.93,0.932l-2.762,0.846c-0.172,0.045-0.231,0.162-0.138,0.252
				c0.094,0.094,0.304,0.131,0.476,0.078l2.761-0.844l1.143,1.133l-4.174,1.268c-0.371,0.107-0.514,0.371-0.304,0.582
				c0.209,0.205,0.694,0.285,1.063,0.168l4.17-1.262l1.046,1.029l-2.772,0.84c-0.172,0.053-0.225,0.17-0.133,0.262
				c0.088,0.088,0.299,0.125,0.465,0.074l2.771-0.84l1.144,1.133l-2.773,0.844c-0.167,0.053-0.228,0.17-0.133,0.254
				c0.1,0.098,0.308,0.133,0.474,0.078l2.768-0.842l1.121,1.109l-2.781,0.838c-0.164,0.051-0.219,0.17-0.132,0.264
				c0.095,0.088,0.304,0.119,0.476,0.072l2.767-0.842l1.004,0.996l-2.772,0.846c-0.168,0.053-0.216,0.166-0.133,0.258
				c0.099,0.088,0.303,0.121,0.467,0.076l2.774-0.844l0.944,0.932l-2.774,0.846c-0.159,0.055-0.227,0.164-0.132,0.256
				c0.088,0.09,0.305,0.129,0.464,0.076l2.777-0.848l1.129,1.131l-4.167,1.27c-0.38,0.109-0.514,0.375-0.305,0.584
				c0.206,0.205,0.689,0.285,1.061,0.168l4.174-1.27l1.041,1.037l-2.772,0.842c-0.165,0.049-0.227,0.164-0.134,0.26
				c0.091,0.09,0.305,0.129,0.471,0.072l2.768-0.836l1.151,1.133l-2.772,0.844c-0.172,0.051-0.227,0.166-0.139,0.252
				c0.094,0.094,0.303,0.135,0.464,0.076l2.779-0.838l1.107,1.107l-2.768,0.846c-0.158,0.045-0.222,0.164-0.126,0.256
				c0.088,0.088,0.297,0.125,0.461,0.072l2.773-0.842l1.003,1l-2.766,0.842c-0.171,0.051-0.226,0.16-0.144,0.258
				c0.094,0.09,0.308,0.125,0.475,0.076l2.772-0.846l0.943,0.936l-2.774,0.844c-0.17,0.047-0.221,0.164-0.132,0.26
				c0.094,0.094,0.304,0.125,0.464,0.072l2.773-0.848l1.13,1.133l-4.161,1.27c-0.377,0.111-0.521,0.373-0.304,0.586
				c0.207,0.209,0.682,0.281,1.057,0.164l4.163-1.268l1.048,1.035l-2.767,0.84c-0.173,0.053-0.229,0.172-0.132,0.262
				c0.087,0.092,0.296,0.125,0.46,0.074l2.771-0.844l1.156,1.143l-2.779,0.84c-0.166,0.053-0.221,0.168-0.131,0.262
				c0.094,0.09,0.303,0.117,0.464,0.07l2.773-0.842l1.117,1.109l-2.767,0.842c-0.172,0.057-0.232,0.16-0.139,0.258
				c0.096,0.088,0.305,0.121,0.476,0.074l2.767-0.84l0.37,0.363l-16.586,5.045C776.656,575.217,754.375,554.012,741.214,531.468z"/>
			<path fill="#F1583A" d="M754.496,533.693c-0.21-0.212-0.072-0.471,0.303-0.584l4.169-1.273l0.755,0.756l-4.168,1.27
				C755.179,533.979,754.701,533.898,754.496,533.693z"/>
			<path fill="#F1583A" d="M763.309,542.451c-0.206-0.211-0.079-0.471,0.294-0.584l4.177-1.27l0.76,0.752l-4.169,1.27
				C764.001,542.736,763.512,542.656,763.309,542.451z"/>
			<path fill="#F1583A" d="M772.124,551.209c-0.206-0.209-0.076-0.473,0.298-0.584l4.173-1.27l0.757,0.752l-4.164,1.27
				C772.807,551.488,772.327,551.416,772.124,551.209z"/>
			<path fill="#F1583A" d="M780.935,559.969c-0.205-0.209-0.077-0.475,0.298-0.584l4.178-1.271l0.757,0.754l-4.168,1.271
				C781.616,560.25,781.149,560.174,780.935,559.969z"/>
			<path fill="#F1583A" d="M789.745,568.727c-0.21-0.211-0.067-0.475,0.304-0.582l4.174-1.268l0.756,0.756l-4.17,1.262
				C790.439,569.012,789.954,568.932,789.745,568.727z"/>
			<path fill="#F1583A" d="M798.56,577.484c-0.209-0.209-0.075-0.475,0.305-0.584l4.167-1.27l0.763,0.752l-4.174,1.27
				C799.249,577.77,798.766,577.689,798.56,577.484z"/>
			<path fill="#F1583A" d="M807.379,586.246c-0.217-0.213-0.073-0.475,0.304-0.586l4.161-1.27l0.755,0.752l-4.163,1.268
				C808.061,586.527,807.586,586.455,807.379,586.246z"/>
			<path fill="#F1583A" d="M757.859,534.729c-0.087-0.094-0.032-0.211,0.138-0.26l2.77-0.84l0.335,0.334l-2.768,0.842
				C758.168,534.854,757.952,534.824,757.859,534.729z"/>
			<path fill="#F1583A" d="M766.677,543.479c-0.094-0.084-0.028-0.195,0.136-0.248l2.77-0.838l0.337,0.328l-2.775,0.848
				C766.98,543.617,766.765,543.576,766.677,543.479z"/>
			<path fill="#F1583A" d="M775.492,552.244c-0.094-0.09-0.039-0.209,0.126-0.256l2.78-0.844l0.336,0.336l-2.779,0.838
				C775.791,552.369,775.586,552.334,775.492,552.244z"/>
			<path fill="#F1583A" d="M784.309,561.004c-0.101-0.094-0.037-0.201,0.127-0.264l2.773-0.838l0.335,0.336l-2.771,0.84
				C784.605,561.129,784.396,561.102,784.309,561.004z"/>
			<path fill="#F1583A" d="M793.119,569.764c-0.092-0.092-0.039-0.209,0.133-0.262l2.772-0.84l0.33,0.336l-2.771,0.84
				C793.418,569.889,793.207,569.852,793.119,569.764z"/>
			<path fill="#F1583A" d="M801.929,578.521c-0.093-0.096-0.031-0.211,0.134-0.26l2.772-0.842l0.332,0.338l-2.768,0.836
				C802.233,578.65,802.02,578.611,801.929,578.521z"/>
			<path fill="#F1583A" d="M810.748,587.279c-0.097-0.09-0.041-0.209,0.132-0.262l2.767-0.84l0.332,0.332l-2.771,0.844
				C811.044,587.404,810.835,587.371,810.748,587.279z"/>
			<path fill="#F1583A" d="M759.349,536.2c-0.101-0.095-0.039-0.208,0.126-0.259l2.769-0.845l0.337,0.333l-2.769,0.844
				C759.646,536.322,759.436,536.291,759.349,536.2z"/>
			<path fill="#F1583A" d="M768.159,544.955c-0.093-0.092-0.027-0.205,0.132-0.254l2.774-0.84l0.33,0.326l-2.772,0.844
				C768.457,545.08,768.246,545.049,768.159,544.955z"/>
			<path fill="#F1583A" d="M776.974,553.719c-0.099-0.1-0.037-0.211,0.13-0.26l2.767-0.844l0.337,0.332l-2.769,0.842
				C777.266,553.838,777.059,553.805,776.974,553.719z"/>
			<path fill="#F1583A" d="M785.787,562.471c-0.094-0.084-0.033-0.205,0.132-0.254l2.769-0.84l0.335,0.332l-2.772,0.84
				C786.089,562.6,785.879,562.566,785.787,562.471z"/>
			<path fill="#F1583A" d="M794.592,571.229c-0.095-0.084-0.034-0.201,0.133-0.254l2.773-0.844l0.335,0.334l-2.768,0.842
				C794.899,571.361,794.691,571.326,794.592,571.229z"/>
			<path fill="#F1583A" d="M803.407,579.986c-0.088-0.086-0.033-0.201,0.139-0.252l2.772-0.844l0.332,0.334l-2.779,0.838
				C803.71,580.121,803.501,580.08,803.407,579.986z"/>
			<path fill="#F1583A" d="M812.225,588.754c-0.09-0.094-0.035-0.209,0.131-0.262l2.779-0.84l0.327,0.33l-2.773,0.842
				C812.527,588.871,812.318,588.844,812.225,588.754z"/>
			<path fill="#F1583A" d="M760.792,537.641c-0.088-0.094-0.037-0.211,0.139-0.254l2.772-0.846l0.332,0.332l-2.779,0.842
				C761.09,537.766,760.882,537.729,760.792,537.641z"/>
			<path fill="#F1583A" d="M769.604,546.395c-0.089-0.088-0.034-0.197,0.132-0.252l2.778-0.844l0.332,0.328l-2.774,0.846
				C769.907,546.523,769.697,546.486,769.604,546.395z"/>
			<path fill="#F1583A" d="M778.425,555.158c-0.093-0.09-0.044-0.211,0.133-0.258l2.774-0.842l0.331,0.334l-2.773,0.848
				C778.723,555.285,778.508,555.246,778.425,555.158z"/>
			<path fill="#F1583A" d="M787.237,563.918c-0.102-0.094-0.039-0.213,0.126-0.26l2.772-0.842l0.338,0.334l-2.77,0.84
				C787.534,564.043,787.325,564.004,787.237,563.918z"/>
			<path fill="#F1583A" d="M796.041,572.676c-0.087-0.094-0.032-0.213,0.132-0.264l2.781-0.838l0.329,0.332l-2.767,0.842
				C796.345,572.795,796.136,572.764,796.041,572.676z"/>
			<path fill="#F1583A" d="M804.864,581.434c-0.096-0.092-0.032-0.211,0.126-0.256l2.768-0.846l0.341,0.332l-2.773,0.842
				C805.161,581.559,804.952,581.521,804.864,581.434z"/>
			<path fill="#F1583A" d="M813.674,590.191c-0.094-0.098-0.033-0.201,0.139-0.258l2.767-0.842l0.337,0.334l-2.767,0.84
				C813.979,590.313,813.77,590.279,813.674,590.191z"/>
			<path fill="#F1583A" d="M762.133,538.975c-0.094-0.096-0.034-0.209,0.133-0.26l2.767-0.848l0.342,0.338l-2.773,0.836
				C762.437,539.1,762.226,539.059,762.133,538.975z"/>
			<path fill="#F1583A" d="M770.943,547.729c-0.088-0.092-0.029-0.203,0.133-0.256l2.778-0.846l0.33,0.334l-2.772,0.844
				C771.246,547.85,771.034,547.824,770.943,547.729z"/>
			<path fill="#F1583A" d="M779.761,556.486c-0.094-0.094-0.034-0.209,0.126-0.256l2.77-0.842l0.339,0.328l-2.771,0.846
				C780.063,556.609,779.848,556.582,779.761,556.486z"/>
			<path fill="#F1583A" d="M788.57,565.244c-0.087-0.094-0.034-0.207,0.132-0.262l2.773-0.84l0.338,0.338l-2.769,0.84
				C788.868,565.369,788.659,565.34,788.57,565.244z"/>
			<path fill="#F1583A" d="M797.382,574.006c-0.083-0.092-0.035-0.205,0.133-0.258l2.772-0.846l0.336,0.336l-2.774,0.844
				C797.685,574.127,797.48,574.094,797.382,574.006z"/>
			<path fill="#F1583A" d="M806.192,582.764c-0.082-0.098-0.027-0.207,0.144-0.258l2.766-0.842l0.338,0.33l-2.772,0.846
				C806.5,582.889,806.286,582.854,806.192,582.764z"/>
			<path fill="#F1583A" d="M763.407,540.232c-0.097-0.088-0.039-0.203,0.132-0.256l2.771-0.84l0.338,0.338l-2.775,0.84
				C763.709,540.363,763.5,540.328,763.407,540.232z"/>
			<path fill="#F1583A" d="M752.28,529.178c-0.096-0.089-0.034-0.205,0.132-0.259l2.767-0.837l0.338,0.331l-2.769,0.843
				C752.582,529.307,752.373,529.273,752.28,529.178z"/>
			<path fill="#F1583A" d="M753.624,530.508c-0.098-0.092-0.043-0.207,0.128-0.252l2.772-0.844l0.337,0.332l-2.773,0.84
				C753.922,530.633,753.715,530.602,753.624,530.508z"/>
			<path fill="#F1583A" d="M754.897,531.778c-0.099-0.093-0.037-0.208,0.127-0.263l2.775-0.837l0.334,0.336l-2.767,0.84
				C755.196,531.904,754.986,531.867,754.897,531.778z"/>
			<path fill="#F1583A" d="M772.217,549c-0.088-0.098-0.033-0.213,0.133-0.266l2.769-0.838l0.34,0.33l-2.772,0.846
				C772.526,549.123,772.311,549.086,772.217,549z"/>
			<path fill="#F1583A" d="M781.029,557.752c-0.09-0.092-0.029-0.207,0.144-0.254l2.766-0.848l0.333,0.332l-2.775,0.848
				C781.332,557.877,781.127,557.846,781.029,557.752z"/>
			<path fill="#F1583A" d="M789.844,566.51c-0.094-0.09-0.034-0.207,0.138-0.252l2.762-0.846l0.337,0.332l-2.761,0.844
				C790.147,566.641,789.938,566.604,789.844,566.51z"/>
			<path fill="#F1583A" d="M798.661,575.271c-0.095-0.092-0.027-0.201,0.132-0.256l2.774-0.846l0.335,0.33l-2.777,0.848
				C798.966,575.4,798.749,575.361,798.661,575.271z"/>
			<path fill="#F1583A" d="M807.477,584.033c-0.089-0.096-0.038-0.213,0.132-0.26l2.774-0.844l0.331,0.328l-2.773,0.848
				C807.78,584.158,807.57,584.127,807.477,584.033z"/>
		</g>
	</g>
	<g>
		<g>
			<path fill="#1C75BC" d="M560.656,561.324c5.181-2.619,9.527-2.09,14.844-0.453c3.295,1.014,6.97,2.168,10.45,1.395
				c3.532-0.785,6.63-2.465,9.964-3.82c4.987-2.025,9.832-1.041,14.685,0.738c6.439,2.363,12.409,4.799,19.153,1.922
				c4.115-1.756,7.915-4.1,12.295-5.184c6.095-1.508,11.708,2.971,16.692,5.736c0.279,0.154,0.53-0.273,0.25-0.428
				c-7.181-3.984-13.174-8.115-21.46-4.359c-4.93,2.236-9.409,5.063-15.002,5.164c-4.958,0.092-9.81-2.703-14.392-4.24
				c-9.172-3.074-14.953,3.053-23.63,4.158c-4.662,0.594-9.552-2.014-14.042-2.955c-3.57-0.748-6.892,0.297-10.058,1.898
				C560.12,561.041,560.372,561.469,560.656,561.324L560.656,561.324z"/>
		</g>
	</g>
	<g>
		<g>
			<path fill="#1C75BC" d="M595.597,552.684c4.698-0.643,9.124,1.082,13.865,0.469c4.349-0.564,7.669-0.889,12.004,0.197
				c8.077,2.025,16.614-1.121,24.731-1.324c0.319-0.008,0.32-0.504,0-0.496c-4.023,0.102-7.957,0.717-11.931,1.307
				c-2.728,0.404-5.402,0.652-8.154,0.656c-2.68,0.004-5.143-1.027-7.763-1.334c-3.588-0.418-6.934,0.244-10.485,0.705
				c-4.178,0.541-8.174-1.236-12.398-0.658C595.149,552.248,595.284,552.727,595.597,552.684L595.597,552.684z"/>
		</g>
	</g>
	<g>
		<g>
			<g>
				<path fill="#4D2A22" d="M581.708,229.441c-5.871-13.55-25.839-17.36-34.788-4.847c-0.634,0.886,0.833,1.733,1.457,0.852
					c7.898-11.158,26.838-7.244,32.036,4.752C580.797,231.084,582.089,230.319,581.708,229.441L581.708,229.441z"/>
			</g>
		</g>
		<g>
			<g>
				<path fill="#4D2A22" d="M435.332,233.667c4.661-12.387,23.419-16.718,31.809-6.059c0.671,0.853,1.864-0.35,1.193-1.193
					c-9.641-12.128-29.298-6.835-34.449,6.854C433.544,234.175,434.994,234.563,435.332,233.667L435.332,233.667z"/>
			</g>
		</g>
		<g>
			<g>
				<path fill="#4D2A22" d="M510.742,278.488c-0.688,1.737-1.387,3.469-2.061,5.211c0.277-0.073,0.554-0.146,0.83-0.219
					c-1.681-1.799-3.667-3.273-5.346-5.055c-0.246-0.261-0.664-0.052-0.675,0.28c-0.091,2.66-0.041,5.492,0.587,8.091
					c0.109,0.453,0.855,0.363,0.821-0.111c-0.195-2.671-0.556-5.294-0.617-7.98c-0.198,0.114-0.397,0.228-0.595,0.342
					c1.963,1.308,3.6,3.356,5.124,5.135c0.268,0.313,0.705,0.095,0.83-0.219c0.693-1.735,1.38-3.472,2.068-5.209
					C511.944,278.154,510.977,277.896,510.742,278.488L510.742,278.488z"/>
			</g>
		</g>
		<g>
			<path fill="#701709" d="M535.509,254.79c0,0,10.278-15.43,28.092-16.489c17.813-1.061,25.589,14.743,23.516,30.377
				c-2.069,15.633-16.151,18.241-30.948,16.969S522.088,275.628,535.509,254.79z"/>
			<path fill="#F8FFFE" d="M533.295,256.485c0,0,10.279-15.43,28.093-16.486c17.811-1.061,25.588,14.738,23.516,30.373
				c-2.069,15.637-16.154,18.24-30.951,16.97C539.158,286.071,519.872,277.324,533.295,256.485z"/>
			<path fill="#701709" d="M536.639,267.268c0.198,7.925,6.78,14.187,14.703,13.989c7.921-0.197,14.185-6.778,13.987-14.703
				c-0.197-7.917-6.781-14.182-14.702-13.985C542.704,252.766,536.441,259.35,536.639,267.268z"/>
			<circle fill="#F8FFFE" cx="542.031" cy="261.395" r="4.51"/>
		</g>
		<g>
			<path fill="#701709" d="M481.73,256.13c0,0-11.032-14.899-28.873-15.07c-17.845-0.173-24.826,16-21.981,31.51
				c2.849,15.511,17.043,17.414,31.762,15.407C477.351,285.971,496.174,276.273,481.73,256.13z"/>
			<path fill="#F8FFFE" d="M484.028,257.712c0,0-11.035-14.898-28.879-15.066c-17.842-0.173-24.819,15.994-21.974,31.506
				c2.849,15.515,17.042,17.413,31.758,15.408C479.645,287.554,498.472,277.857,484.028,257.712z"/>
			<path fill="#701709" d="M481.222,268.648c0.197,7.925-6.061,14.506-13.984,14.704c-7.92,0.197-14.505-6.063-14.703-13.989
				c-0.197-7.917,6.067-14.502,13.988-14.7C474.446,254.466,481.024,260.73,481.222,268.648z"/>
			<circle fill="#F8FFFE" cx="475.548" cy="263.05" r="4.509"/>
		</g>
		<g>
			<path fill="#6F150B" d="M474.359,305.835l0.006-0.004c7.542-0.498,19.857-1.009,33.707-1.354
				c11.747-0.292,22.399-0.413,29.973-0.365c4.531,0.319,11.647,1.993,10.804,9.443c-3.658,17.305-19.922,30.597-39.775,31.092
				c-18.593,0.463-34.608-10.436-40.272-25.863C465.103,307.277,474.359,305.835,474.359,305.835z"/>
			<path fill="#FFFFFF" d="M538.089,304.112c0.315,0.023,0.648,0.052,0.989,0.089c-5.894,6.826-17.31,11.625-30.539,11.955
				c-13.29,0.331-24.972-3.933-31.181-10.507c7.605-0.439,18.586-0.869,30.754-1.172
				C519.86,304.184,530.512,304.064,538.089,304.112z"/>
			<path fill="#DD6C5B" d="M509.073,344.648c-7.671,0.191-14.885-1.578-21.13-4.771c3.775-6.808,11.636-11.604,20.849-11.833
				c9.173-0.229,17.232,4.126,21.36,10.68C524.03,342.297,516.826,344.455,509.073,344.648z"/>
		</g>
	</g>
	<path fill="#D3B5AB" d="M369.803,478.311c0,0,20.69,18.579,54.376,12.022L369.803,478.311z"/>
	<polygon fill="#D3B5AB" points="659.339,478.311 662.221,488.923 615.197,509.777 610.864,525.936 608.188,490.333 	"/>
	<path fill="#D3B5AB" d="M665.128,512.444c0,0-0.048,0.553-0.133,1.521c-0.044,0.483-0.119,1.069-0.155,1.745
		c-0.044,0.674-0.094,1.436-0.172,2.261c-0.13,1.656-0.343,3.576-0.46,5.648c-0.113,2.07-0.271,4.276-0.426,6.482
		c-0.089,1.102-0.178,2.204-0.265,3.289c-0.044,1.088-0.086,2.158-0.128,3.193c-0.075,2.072-0.203,4.004-0.283,5.664
		c-0.081,1.658-0.211,3.041-0.272,4.01c-0.083,0.971-0.131,1.523-0.131,1.523s-0.023-0.553-0.063-1.523
		c-0.02-0.969-0.088-2.355-0.096-4.02s-0.05-3.607-0.034-5.689c0.017-1.04-0.011-2.117,0.044-3.209
		c0.076-1.09,0.153-2.197,0.23-3.305c0.178-2.215,0.352-4.428,0.55-6.5c0.069-1.037,0.241-2.033,0.381-2.979
		c0.141-0.943,0.274-1.836,0.397-2.661c0.242-1.647,0.489-3.012,0.691-3.96C665.01,512.986,665.128,512.444,665.128,512.444z"/>
	<path fill="#D3B5AB" d="M676.558,521.854c0,0,0.396,1.574,0.772,3.971c0.19,1.197,0.391,2.6,0.565,4.105
		c0.174,1.506,0.28,3.121,0.401,4.734c0.027,0.81,0.054,1.619,0.08,2.416c0.022,0.795,0.056,1.578,0.03,2.338
		c-0.01,0.76-0.045,1.494-0.073,2.189c-0.035,0.695-0.042,1.354-0.096,1.959c-0.108,1.211-0.261,2.215-0.338,2.918
		c-0.09,0.701-0.155,1.1-0.155,1.1s-0.023-0.406-0.039-1.113c-0.003-0.707-0.05-1.717-0.03-2.92
		c-0.017-1.207-0.124-2.613-0.149-4.117c0-0.752-0.092-1.529-0.114-2.318c-0.037-0.791-0.075-1.593-0.112-2.396
		c-0.096-1.604-0.19-3.21-0.279-4.714c-0.112-1.504-0.146-2.916-0.247-4.119c-0.068-1.209-0.124-2.216-0.164-2.921
		C676.576,522.258,676.558,521.854,676.558,521.854z"/>
	<path fill="#D3B5AB" d="M692.392,530.762c0,0-0.055,0.369-0.151,1.016c-0.106,0.643-0.259,1.561-0.44,2.662
		c-0.203,1.096-0.439,2.375-0.693,3.744c-0.268,1.365-0.554,2.82-0.84,4.275c-0.323,1.449-0.564,2.91-0.863,4.268
		c-0.267,1.363-0.515,2.637-0.728,3.727c-0.227,1.092-0.34,2.008-0.455,2.65c-0.107,0.643-0.184,1.012-0.184,1.012
		s-0.013-0.371-0.011-1.023c0.03-0.648-0.037-1.598,0.08-2.711c0.109-1.113,0.206-2.424,0.429-3.803
		c0.216-1.381,0.447-2.857,0.751-4.314c0.155-0.729,0.311-1.459,0.463-2.176c0.147-0.719,0.34-1.414,0.5-2.094
		c0.33-1.357,0.675-2.613,0.994-3.686c0.304-1.074,0.616-1.956,0.81-2.578C692.258,531.111,692.392,530.762,692.392,530.762z"/>
	<polygon fill="#41AFDE" points="433.688,387.803 419.809,489.367 424.179,490.333 	"/>
	<polygon fill="#41AFDE" points="597.021,387.803 615.364,488.444 608.188,490.333 	"/>
</g>
</svg>
