<svg width="300" height="300" viewBox="0 0 300 300" fill="none" xmlns="http://www.w3.org/2000/svg">
<path d="M135.84 3.489C114.816 5.676 92.001 13.305 74.094 24.048C54.6 35.853 35.895 54.558 24.09 74.055C9.56698 98.196 1.87498 127.974 3.13498 155.697C4.72798 192.372 18.987 225.798 44.121 251.862C56.523 264.795 69.456 274.212 85.44 282.039C106.662 292.452 126.027 296.895 150.102 296.895C174.177 296.895 193.674 292.452 214.764 282.039C230.814 274.146 243.681 264.729 255.882 252.129C277.635 229.512 290.898 202.389 295.806 170.622C297.396 160.209 297.396 139.914 295.806 129.504C293.286 113.058 289.173 99.858 282.078 85.401C257.739 35.727 208.794 4.42501 153.417 3.16501C147.048 3.02701 139.158 3.159 135.84 3.489ZM164.028 49.98C184.785 55.218 201.234 72.528 205.479 93.618C207.003 101.046 206.541 113.115 204.483 120.213C196.59 147.537 169.332 165.048 141.477 160.671C121.782 157.554 105.003 144.222 97.707 125.985C92.334 112.455 92.334 96.405 97.839 83.274C108.582 57.342 136.836 43.149 164.028 49.98ZM208.461 185.475C222.057 187.995 234.06 193.101 243.477 200.265C249.513 204.906 256.212 212.136 256.212 214.059C256.212 214.854 254.487 217.971 252.3 221.088C220.599 266.451 163.164 285.486 110.64 268.044C85.506 259.686 63.153 242.973 47.901 221.088C45.714 217.971 43.989 214.854 43.989 214.059C43.989 212.07 51.351 204.177 57.12 199.932C68.526 191.442 82.257 186.402 98.769 184.611C101.622 184.278 126.093 184.08 153.087 184.146C196.989 184.281 202.824 184.413 208.461 185.475Z" fill="#D7BB9A"/>
</svg>
