<svg class="game__heart-svg heart" width="100" height="92" viewBox="0 0 100 92" fill="none" xmlns="http://www.w3.org/2000/svg">
<path class="heart__fill" d="M98.4374 29.135C98.4374 14.0336 86.1952 1.79138 71.0938 1.79138C62.2516 1.79138 54.5758 5.79594 49.5778 12.3064C44.7357 5.808 36.8522 1.79138 28.1254 1.79138C13.455 1.79138 1.56268 13.6837 1.56268 28.3538C1.56268 34.4931 2.75257 41.043 6.25027 45.5413L50 89.5198L90.6248 48.6663C95.61 43.7132 98.4374 36.7176 98.4374 29.135Z" fill="#FF0000"/>
<path class="heart__fill" d="M50 12.7288C50 12.7288 73.9072 29.922 50.4576 89.0595L4.59359 42.8728L1.56268 29.5073L5.73626 13.5923L17.0451 4.05465L29.5073 1.56268L43.7502 6.47877L50 12.7288Z" fill="#FF3C3C"/>
<path d="M49.9998 91.736L9.85117 51.3522C3.59009 45.5256 0 37.5655 0 29.5073C0 13.2371 13.2371 0 29.5073 0C36.953 0 44.3357 3.13105 50 8.64228C55.6645 3.13105 63.0474 0 70.4929 0C86.7631 0 100 13.2371 100 29.5073C100 37.5655 96.4099 45.5258 90.149 51.3522L49.9998 91.736ZM29.5073 3.12513C14.96 3.12513 3.12513 14.96 3.12513 29.5073C3.12513 36.6035 6.44298 43.9216 12.001 49.0838L12.0458 49.1269L50 87.3035L87.9763 49.105L87.999 49.0838C93.5568 43.922 96.8747 36.6037 96.8747 29.5073C96.8747 14.96 85.0398 3.12513 70.4927 3.12513C63.4006 3.12513 56.3486 6.33834 51.1447 11.9409L49.9998 13.1733L48.8549 11.9409C43.6514 6.33834 36.5994 3.12513 29.5073 3.12513Z" fill="#1D1D1B"/>
<path d="M50.4578 75.6862L52.6675 77.896L69.8547 60.7088L67.6449 58.4991L50.4578 75.6862Z" fill="white"/>
</svg>
