<svg width="142" height="58" viewBox="0 0 142 58" fill="none" xmlns="http://www.w3.org/2000/svg">
<path d="M38.5 13.1667V26.1667H51.8333H65.1667V13.1667V0.166746H51.8333H38.5V13.1667ZM64.5 13.0834V25.3334H51.8333H39.1667V13.0834V0.833414H51.8333H64.5V13.0834Z" fill="white"/>
<path d="M64.5 13.0834V25.3334H51.8333H39.1667V13.0834V0.833414H51.8333H64.5V13.0834Z" fill="white"/>
<path d="M47 13.0834V20.5001H48.3333H49.6667V17.5834V14.6501L50.6333 14.7001L51.5833 14.7501L53.25 17.2834C55.5167 20.7168 55.2667 20.5001 56.95 20.5001C57.7 20.5001 58.3333 20.4501 58.3333 20.4001C58.3333 20.2334 54.5333 14.7334 54.2667 14.5168C53.8833 14.1834 53.9333 14.0834 54.65 13.7501C55.4833 13.3834 56.4 12.4334 56.7667 11.5834C57.3167 10.2334 57.0167 8.16675 56.1167 7.20009C55.5833 6.61675 54.3833 6.05009 53.25 5.85009C52.7167 5.75009 51.0833 5.66675 49.6333 5.66675H47V13.0834ZM52.8667 8.00009C54.8 8.55009 55 11.3168 53.1833 12.2834C52.5833 12.6001 52.2 12.6668 51.05 12.6668H49.6667V10.2501V7.83342H50.9667C51.6667 7.83342 52.5333 7.91675 52.8667 8.00009Z" fill="#FD6334"/>
<path d="M76.8333 13.1667V26.1667H90.1666H103.5V13.1667V0.166746H90.1666H76.8333V13.1667ZM102.833 13.0834V25.3334H90.1666H77.4999V13.0834V0.833414H90.1666H102.833V13.0834Z" fill="white"/>
<path d="M102.833 13.0834V25.3334H90.1666H77.4999V13.0834V0.833414H90.1666H102.833V13.0834Z" fill="white"/>
<path d="M88.9166 5.71676C87.3833 6.23342 86.5833 6.90009 86.0166 8.16676C85.2833 9.80009 85.8 11.9668 87.15 12.9001C87.4833 13.1334 88.6 13.6168 89.6 13.9501C91.95 14.7334 92.5833 15.2834 92.45 16.4334C92.3666 17.2834 92 17.7834 91.2166 18.1001C90.0833 18.5834 88.5 18.2834 87.1666 17.3334C86.9166 17.1501 86.5833 17.0001 86.4333 17.0001C86.15 17.0001 85.1666 18.2501 85.1666 18.6001C85.1666 18.9334 86.3833 19.7668 87.4833 20.1834C88.1833 20.4668 88.7833 20.5668 89.9166 20.5668C91.2333 20.5834 91.5333 20.5334 92.3666 20.1168C94.05 19.2834 95 17.7334 95 15.8001C95 13.7168 93.9166 12.6501 90.6666 11.5834C89.0333 11.0334 88.1666 10.3334 88.1666 9.55009C88.1833 7.78342 90.35 7.10009 92.4666 8.18342C93.0166 8.48342 93.6 8.66676 93.7333 8.61676C93.8833 8.55009 94.1666 8.16676 94.3666 7.75009L94.75 6.98342L94.3333 6.65009C93.15 5.75009 90.3166 5.26676 88.9166 5.71676Z" fill="#FD6334"/>
<path d="M0.166626 44.9167V57.8334H13.5H26.8333V44.9167V32H13.5H0.166626V44.9167ZM26.1666 44.9167V57.1667H13.5H0.833293V44.9167V32.6667H13.5H26.1666V44.9167Z" fill="white"/>
<path d="M9.83325 44.9167V52.3334H14.1666H18.4999V51.1667V50H15.4999H12.4999V43.75V37.5H11.1666H9.83325V44.9167Z" fill="white"/>
<path d="M38.5 44.9167V57.8334H51.8333H65.1667V44.9167V32H51.8333H38.5V44.9167ZM64.5 44.9167V57.1667H51.8333H39.1667V44.9167V32.6667H51.8333H64.5V44.9167Z" fill="white"/>
<path d="M50.45 37.6167C50.4 37.7 49.1167 40.9334 47.5833 44.8334C46.05 48.7334 44.7667 52.0167 44.7167 52.1167C44.65 52.2834 44.95 52.3334 45.8667 52.3334C47.3833 52.3334 47.4333 52.3 48.1833 50.2L48.7333 48.6667H51.85H54.95L55.5 50.2C56.1833 52.1667 56.3667 52.3334 57.8667 52.3334C58.55 52.3334 59 52.2667 58.9667 52.1667C58.95 52.0834 57.65 48.75 56.0833 44.7667L53.25 37.5H51.8833C51.1333 37.5 50.4833 37.55 50.45 37.6167ZM52.9833 43.3C53.5667 44.9167 54.0833 46.35 54.1333 46.45C54.1833 46.6167 53.65 46.6667 51.8333 46.6667C50.5167 46.6667 49.5 46.6 49.5333 46.5167C49.5667 46.4334 50.0667 45.0167 50.6667 43.35C51.2667 41.7 51.7833 40.3334 51.8333 40.3334C51.8833 40.3334 52.4 41.6667 52.9833 43.3Z" fill="white"/>
<path d="M76.8333 44.9167V57.8334H90.1666H103.5V44.9167V32H90.1666H76.8333V44.9167ZM102.833 44.9167V57.1667H90.1666H77.4999V44.9167V32.6667H90.1666H102.833V44.9167Z" fill="white"/>
<path d="M84 44.9167V52.3334H85.1667H86.3333V47.2334C86.3333 44.2834 86.4 42.1834 86.4833 42.2334C86.5667 42.2834 88.3667 44.5334 90.4667 47.2334C92.5833 49.9167 94.4333 52.1667 94.5833 52.2334C94.7333 52.2834 95.2 52.3334 95.6 52.3334H96.3333V44.9167V37.5H95.15H93.9833L94.0333 42.6667C94.0667 45.5167 94.0667 47.8334 94.05 47.8334C94.0333 47.8334 92.2833 45.6 90.1667 42.8667C88.0333 40.15 86.1833 37.8167 86.0333 37.7C85.8833 37.6 85.3667 37.5 84.8833 37.5H84V44.9167Z" fill="white"/>
<path d="M115.167 44.9167V57.8334H128.5H141.833V44.9167V32H128.5H115.167V44.9167ZM141.167 44.9167V57.1667H128.5H115.833V44.9167V32.6667H128.5H141.167V44.9167Z" fill="white"/>
<path d="M127.55 37.5834C124.5 38.2501 122.467 40.5001 121.983 43.6834C121.483 47.1001 123 50.1667 125.9 51.5834C128.267 52.7501 131.3 52.7667 133.633 51.6334L134.75 51.0834L134.8 48.0334L134.833 45.0001H132.417H130V45.8001C130 46.2334 130.083 46.6834 130.2 46.8001C130.317 46.9167 130.85 47.0001 131.45 47.0001H132.5V48.3501V49.6834L131.883 49.9667C131.433 50.1667 130.783 50.2501 129.667 50.2501C128.35 50.2501 127.967 50.1834 127.4 49.8834C126.283 49.2834 125.717 48.7167 125.217 47.7001C124.8 46.8501 124.767 46.5667 124.75 45.0001C124.75 43.0167 125.067 42.0501 126.05 41.0334C127.033 40.0001 127.717 39.7501 129.517 39.7501C131 39.7501 131.217 39.8001 132.3 40.3167C132.933 40.6334 133.583 40.8334 133.733 40.7834C133.867 40.7334 134.183 40.3834 134.433 40.0001C134.85 39.3667 134.867 39.3167 134.6 39.0167C134.117 38.4834 132.717 37.8334 131.55 37.5834C130.167 37.2834 128.917 37.2834 127.55 37.5834Z" fill="white"/>
</svg>
