<svg width="400" height="400" viewBox="0 0 400 400" fill="none" xmlns="http://www.w3.org/2000/svg">
<path d="M281.477 143.037L246.708 150.375L270.523 176.749L266.758 212.084L299.2 197.583L331.642 212.084L327.877 176.749L351.692 150.375L316.923 143.037L299.2 112.237L281.477 143.037Z" fill="white"/>
<path d="M386.813 286.309L364.036 281.502L352.425 261.321L340.813 281.502L318.036 286.309L333.638 303.587L331.172 326.735L352.425 317.235L373.682 326.735L371.212 303.586L386.813 286.309Z" fill="white"/>
<path d="M191.648 200C191.648 121.611 236.753 53.7688 302.418 20.9758C275.554 7.56044 245.255 0 213.187 0C102.73 0 13.1868 89.5429 13.1868 200C13.1868 310.457 102.73 400 213.187 400C245.255 400 275.554 392.44 302.418 379.024C236.753 346.231 191.648 278.389 191.648 200Z" fill="white"/>
</svg>
