<svg class="speaker__svg" width="100" height="100" viewBox="0 0 100 100" fill="none" xmlns="http://www.w3.org/2000/svg">
<path class="speaker__circle" d="M50 100C36.6444 100 24.0884 94.7992 14.6448 85.3554C5.2008 75.9116 0 63.3554 0 50C0 36.6446 5.2008 24.0884 14.6448 14.6446C24.0884 5.2008 36.6444 0 50 0C63.3556 0 75.9116 5.2008 85.3552 14.6446C94.7992 24.0884 100 36.6446 100 50C100 63.3554 94.7992 75.9116 85.3552 85.3554C75.9116 94.7992 63.3556 100 50 100ZM50 3.98406C24.6267 3.98406 3.98406 24.6267 3.98406 50C3.98406 75.3733 24.6267 96.0159 50 96.0159C75.3733 96.0159 96.0159 75.3733 96.0159 50C96.0159 24.6267 75.3733 3.98406 50 3.98406Z" fill="black"/>
<path class="speaker__arrow" d="M38.6721 79.8805C37.5512 79.8805 36.4351 79.6028 35.4442 79.0777C33.1845 77.8795 31.7807 75.5462 31.7807 72.9886V27.0113C31.7807 24.4538 33.1845 22.1205 35.444 20.9225C37.7036 19.7247 40.4225 19.8715 42.5396 21.307L76.4502 44.2954C78.3442 45.5793 79.4749 47.7119 79.4749 50C79.4749 52.2878 78.3442 54.4205 76.4502 55.7046L42.5396 78.6932C41.3942 79.4699 40.0568 79.8805 38.6721 79.8805ZM38.6729 24.1026C38.2066 24.1026 37.739 24.2149 37.3104 24.4424C36.357 24.948 35.7647 25.9323 35.7647 27.0113V72.9886C35.7647 74.0677 36.357 75.0522 37.3104 75.5576C37.7285 75.7791 38.1994 75.8964 38.6721 75.8964C39.2566 75.8964 39.8207 75.7233 40.3038 75.3956L74.2145 52.407C75.0135 51.8651 75.4906 50.9655 75.4906 50C75.4906 49.0345 75.0135 48.1349 74.2145 47.5932L40.304 24.6046C39.8123 24.2713 39.2438 24.1026 38.6729 24.1026Z" fill="black"/>
<path class="speaker__line" d="M56.9745 12.5574C56.8602 12.5574 56.7442 12.5476 56.6277 12.5271C52.4078 11.7864 47.9773 11.7643 43.751 12.4625C42.6647 12.6424 41.64 11.9074 41.461 10.8219C41.2817 9.73645 42.0161 8.71115 43.1016 8.53187C47.7691 7.76075 52.6564 7.78486 57.3165 8.60318C58.4 8.79342 59.1243 9.82609 58.9341 10.9098C58.7643 11.8767 57.9235 12.5574 56.9745 12.5574Z" fill="black"/>
<path class="speaker__line" d="M87.6183 38.2472C86.8056 38.2472 86.0424 37.746 85.747 36.9384C82.4861 28.0159 76.042 20.6721 67.6024 16.2596C66.6273 15.7498 66.2502 14.5462 66.76 13.5713C67.2699 12.5962 68.4733 12.2191 69.4482 12.7289C78.7693 17.6022 85.8867 25.7141 89.489 35.5707C89.8667 36.604 89.3353 37.7478 88.3018 38.1255C88.0763 38.208 87.8452 38.2472 87.6183 38.2472Z" fill="black"/>
</svg>
