<svg width="465" height="465" viewBox="0 0 465 465" fill="none" xmlns="http://www.w3.org/2000/svg">
<g clip-path="url(#clip0_52_2)">
<path d="M232.317 0V0.160034C223.997 0.160034 215.665 2.18101 208.192 6.41101C197.981 12.192 190.544 21.458 186.817 32.16H152.098V48.129L48.036 48.385L49.286 338.76H65.286V378.76H49.442L49.816 464.137H415.597L415.909 208.231H400.003V168.231H415.941L416.101 48.262L312.132 48.071V32.1011H204.226C207.002 27.2941 211.05 23.163 216.132 20.288C221.121 17.486 226.683 16.09 232.257 16.1C237.833 16.113 243.394 17.54 248.351 20.413C250.771 21.805 252.938 23.511 254.851 25.411L270.476 19.223C266.708 14.19 262.031 9.79601 256.382 6.53601C248.949 2.24201 240.64 0.0780342 232.319 0.0350342L232.317 0Z" fill="#5A3392"/>
<path d="M152.082 64.094V80.157H312.113V64.219H400.144L399.66 448.188H65.754L64.127 64.313L152.082 64.094Z" fill="#EE746C"/>
<path d="M88.073 208.18V216.094V416.172H376.144V208.18H88.073Z" fill="#5A3392"/>
<path d="M104.135 224.127H360.08V400.111H104.135V224.127Z" fill="white"/>
<path d="M232.049 112.158C214.471 112.158 200.042 126.588 200.041 144.164C200.041 161.744 214.471 176.172 232.049 176.172C249.628 176.172 264.057 161.742 264.057 144.164C264.057 126.586 249.627 112.156 232.049 112.158ZM232.049 128.102C240.98 128.102 248.112 135.233 248.112 144.165C248.113 153.099 240.98 160.11 232.049 160.11C223.118 160.11 216.104 153.096 216.104 144.165C216.104 135.234 223.118 128.102 232.049 128.102Z" fill="white"/>
<path d="M279.293 112.158C275.176 112.57 272.052 116.053 272.088 120.189V151.252C272.039 151.762 272.039 152.277 272.088 152.787V168.023C271.716 172.425 274.984 176.296 279.387 176.669C283.79 177.04 287.661 173.773 288.033 169.37C288.071 168.921 288.071 168.472 288.033 168.022V164.95L308.348 175.106C312.308 177.069 317.109 175.448 319.071 171.487C321.014 167.567 319.446 162.813 315.553 160.815L297.954 151.958L315.553 143.218C318.221 141.861 319.908 139.126 319.925 136.132V120.189C319.942 115.793 316.408 112.207 312.012 112.158H280.122C279.846 112.145 279.57 112.145 279.293 112.158ZM288.033 128.102H303.978V131.174L288.033 139.088V128.104V128.102Z" fill="white"/>
<path d="M186.931 114.52C173.912 108.907 158.696 113.383 150.317 124.915C141.933 136.442 142.072 152.202 150.559 163.655C159.043 175.106 174.208 179.313 187.173 173.575C191.322 172.055 193.454 167.46 191.934 163.311C190.414 159.161 185.819 157.03 181.67 158.549C181.371 158.658 181.079 158.785 180.796 158.93C174.602 161.668 167.583 159.842 163.316 154.084C159.053 148.32 159.095 140.045 163.316 134.24C167.531 128.435 174.463 126.601 180.678 129.281C184.76 130.998 189.461 129.082 191.178 125.002C192.889 120.936 190.994 116.25 186.938 114.518L186.931 114.52Z" fill="white"/>
<path d="M335.277 112.158C331.16 112.57 328.036 116.053 328.072 120.189V168.142C328.055 172.56 331.624 176.156 336.042 176.173C336.062 176.173 336.083 176.173 336.103 176.173H367.993C372.429 176.152 376.007 172.538 375.985 168.103C375.964 163.699 372.398 160.132 367.993 160.111H344.134V128.103H367.993C372.396 128.48 376.27 125.216 376.647 120.814C377.024 116.412 373.76 112.537 369.357 112.16C368.903 112.121 368.447 112.121 367.993 112.16H336.103C335.827 112.146 335.55 112.146 335.275 112.16L335.277 112.158Z" fill="white"/>
<path d="M339.293 136.135C334.855 136.321 331.407 140.067 331.592 144.504C331.777 148.943 335.524 152.391 339.962 152.205C340.015 152.203 340.068 152.201 340.121 152.197H351.932C356.368 152.152 359.928 148.521 359.883 144.086C359.84 139.713 356.305 136.178 351.932 136.135H340.121C339.846 136.121 339.569 136.121 339.293 136.135Z" fill="white"/>
<path d="M95.395 112.158C90.996 112.576 87.768 116.48 88.185 120.879C88.31 122.195 88.759 123.461 89.492 124.561L112.996 160.112H96.226C91.79 160.091 88.177 163.669 88.156 168.104C88.135 172.539 91.713 176.153 96.148 176.174C96.174 176.174 96.2 176.174 96.226 176.174H127.998C132.417 176.137 135.968 172.526 135.931 168.106C135.918 166.565 135.46 165.059 134.612 163.772L110.99 128.104H127.998C132.401 128.481 136.275 125.217 136.652 120.815C137.029 116.413 133.765 112.538 129.362 112.161C128.908 112.122 128.452 112.122 127.998 112.161H96.226C95.95 112.147 95.673 112.147 95.398 112.161L95.395 112.158Z" fill="white"/>
<path d="M168.02 48.156H280.114H296.052V64.094H168.02V48.156Z" fill="#FB9761"/>
<path d="M92.089 336.094V352.158H372.128V336.094H92.089Z" fill="#5A3392"/>
<path d="M92.089 272.197V288.14H372.128V272.197H92.089Z" fill="#5A3392"/>
<path d="M136.144 212.197V412.158H152.089V212.197H136.144Z" fill="#5A3392"/>
<path d="M312.128 212.197V412.158H328.073V212.197H312.128Z" fill="#5A3392"/>
<path d="M264.057 212.197V412.158H280.12V212.197H264.057Z" fill="#5A3392"/>
<path d="M49.272 350.725H65.272V366.725H49.272V350.725V350.725Z" fill="#5A3392"/>
<path d="M416.019 180.182H400.019V196.182H416.019V180.182Z" fill="#5A3392"/>
</g>
<defs>
<clipPath id="clip0_52_2">
<rect width="464.137" height="464.137" fill="white"/>
</clipPath>
</defs>
</svg>
