<svg width="382" height="400" viewBox="0 0 382 400" fill="none" xmlns="http://www.w3.org/2000/svg">
<path d="M191 98.5673C135.07 98.5673 89.5673 144.069 89.5673 199.999C89.5673 255.929 135.07 301.432 191 301.432C246.93 301.432 292.433 255.929 292.433 199.999C292.433 144.07 246.93 98.5673 191 98.5673Z" fill="white"/>
<path d="M342.114 200L379.259 150.083C381.798 146.672 382.525 142.241 381.211 138.196C379.896 134.152 376.704 130.995 372.644 129.727L313.254 111.176L313.963 48.96C314.012 44.7074 311.996 40.6954 308.556 38.1956C305.115 35.6958 300.676 35.0179 296.648 36.3789L237.696 56.2801L201.702 5.52961C199.241 2.0607 195.253 0 191 0C186.747 0 182.759 2.0607 180.299 5.52961L144.303 56.2809L85.3506 36.3798C81.321 35.0197 76.8821 35.6967 73.4421 38.1964C70.002 40.6962 67.9859 44.7083 68.0349 48.9609L68.7451 111.177L9.35479 129.728C5.29548 130.996 2.10297 134.153 0.78923 138.197C-0.525385 142.242 0.202332 146.672 2.74147 150.084L39.8857 200.001L2.74147 249.918C0.202332 253.329 -0.52451 257.76 0.78923 261.804C2.10297 265.849 5.29636 269.006 9.35479 270.274L68.7451 288.824L68.0349 351.04C67.9859 355.293 70.002 359.305 73.4421 361.804C76.883 364.303 81.3202 364.981 85.3506 363.621L144.303 343.72L180.299 394.471C182.759 397.94 186.747 400.001 191 400.001C195.253 400.001 199.241 397.94 201.702 394.471L237.697 343.72L296.649 363.621C300.677 364.981 305.116 364.304 308.557 361.804C311.997 359.305 314.013 355.293 313.964 351.041L313.255 288.824L372.645 270.274C376.705 269.006 379.897 265.849 381.212 261.804C382.525 257.76 381.799 253.33 379.259 249.918L342.114 200ZM191 327.672C120.601 327.672 63.3275 270.398 63.3275 199.999C63.3275 129.6 120.601 72.3275 191 72.3275C261.399 72.3275 318.673 129.6 318.673 199.999C318.673 270.398 261.399 327.672 191 327.672Z" fill="white"/>
</svg>
