<svg width="123" height="123" viewBox="0 0 123 123" fill="none" xmlns="http://www.w3.org/2000/svg">
<g clip-path="url(#clip0_2_2)">
<path d="M33.04 38.05C52.94 57.24 67.48 77.44 82.16 103.02C89.88 94.63 91.81 91.8 85.82 79.74C76.94 61.86 52.38 36.19 37.92 30.84C36.19 30.2 34.6 29.88 33.25 29.92C32.46 29.95 31.39 30.72 30.67 31.73C29.06 33.99 30.79 35.88 33.04 38.05Z" fill="#FF0000"/>
<path d="M88.74 15.17C67.84 44.01 45.87 72.13 18.56 98.13C28.46 106.93 32.23 106.54 42.35 97.82C59.72 82.84 85.39 46.96 94.31 26.7C95.8 23.32 97.33 17.83 93.5 15.65C91.94 14.76 89.89 14.33 88.74 15.17Z" fill="#FF0000"/>
<path d="M51.21 0.869995L51.65 0.799995L52 0.739995L52.1 0.729995L52.54 0.659995L52.79 0.629995L52.98 0.599995L53.42 0.539995L53.57 0.519994L53.86 0.479995L54.3 0.429995L54.35 0.419995L54.74 0.379995L55.13 0.339995H55.17L55.61 0.299995L55.91 0.269995L56.05 0.259994L56.49 0.219995L56.69 0.199995L56.93 0.179995L57.36 0.149995L57.47 0.139995L57.8 0.119995L58.24 0.0999945H58.25L58.67 0.0799945L59.02 0.0599945H59.1L59.54 0.0399945L59.79 0.0299945L59.97 0.0199945L60.4 0.00999451H60.56H60.84H61.27H61.33H61.7H62.1H62.13L62.56 0.0199945H62.86H62.99L63.42 0.0299945L63.63 0.0399945L63.85 0.0499945L64.28 0.0699945H64.4L64.71 0.0899945L65.14 0.109995H65.16L65.57 0.129995L65.65 0.139995L66 0.169995L66.43 0.199995L66.69 0.219995L66.86 0.229995L67.45 0.289995L67.71 0.319995L68.13 0.359995L68.2 0.369995L68.55 0.409995L68.95 0.459995H68.97L69.39 0.509995L69.69 0.549995L69.8 0.569995L70.22 0.629995L70.43 0.659995L70.64 0.689995L71.06 0.759995L71.18 0.779994L71.48 0.829994L71.9 0.899994H71.93L72.32 0.969995L72.67 1.02999L72.74 1.03999L73.15 1.11999L73.41 1.16999L73.57 1.19999L74.81 1.45999L74.88 1.47999L75.22 1.55999L75.61 1.64999H75.63L76.34 1.82999L76.45 1.84999C77.13 2.01999 77.8 2.19999 78.47 2.39999C75.65 5.51999 73.05 8.49999 70.65 11.35C69.05 11.06 67.43 10.84 65.8 10.7C64.54 10.59 63.28 10.53 62.01 10.52H61.96C61.34 10.52 60.72 10.52 60.1 10.54H60.02L59.74 10.55L59.46 10.56L59.18 10.57L58.9 10.58L58.81 10.59L58.62 10.6L58.17 10.63L58.06 10.64L57.52 10.68H57.5L57.22 10.7L56.94 10.72L56.88 10.73L56.38 10.78L56.2 10.8L56.07 10.81L55.57 10.86H55.55L55.5 10.87L55.22 10.9L54.94 10.93L54.9 10.94L54.65 10.97L54.37 11.01L54.25 11.03L54.09 11.05L53.81 11.09L53.6 11.12L53.52 11.13L53.24 11.18L52.96 11.23H52.95L52.31 11.34H52.3L51.67 11.46H51.66L51.03 11.59H51.02L50.39 11.73H50.38L49.76 11.87H49.75L49.13 12.02H49.12L48.5 12.18H48.49L47.87 12.35H47.86L47.25 12.52H47.24L46.63 12.7H46.62L46.02 12.89H46.01L45.41 13.09H45.4L44.81 13.29H44.8L44.21 13.5H44.2L43.61 13.72H43.6L43.02 13.94H43.01L41.84 14.41H41.83C32.88 18.13 25.36 24.27 19.94 31.91C12.4 42.56 8.90001 56.05 11.24 69.91C11.8 73.2 12.66 76.38 13.79 79.4C11.76 83.23 9.66001 87.07 7.51001 90.88L7.36001 90.61L7.33001 90.55L6.65001 89.24L6.64001 89.22L6.63001 89.21L6.50001 88.94L6.30001 88.53L6.22001 88.38L6.08001 88.1L5.96001 87.85L5.94001 87.81L5.81001 87.53L5.68001 87.25L5.64001 87.17L5.42001 86.68L5.33001 86.48L5.29001 86.4L5.04001 85.82L5.02001 85.78L4.55001 84.65L4.44001 84.37L4.43001 84.35L4.20001 83.77L4.16001 83.66L3.89001 82.95L3.87001 82.89L3.65001 82.29L3.63001 82.23L3.55001 81.99L3.38001 81.5L3.34001 81.38L3.24001 81.08L3.14001 80.78V80.77L3.04001 80.48L2.75001 79.56L2.67001 79.3L2.66001 79.26L2.57001 78.95L2.48001 78.64L2.45001 78.56L2.38001 78.33L2.29001 78.02L2.22001 77.8L2.20001 77.7L2.12001 77.39L2.04001 77.08L2.03001 77.05L1.96001 76.77L1.88001 76.46L1.84001 76.3L1.80001 76.15L1.72001 75.84L1.65001 75.55V75.53L1.58001 75.22L1.50001 74.87L1.47001 74.76L1.42001 74.55L1.35001 74.23L1.30001 73.99L1.28001 73.91L1.21001 73.59L1.15001 73.27L1.14001 73.22L1.10001 72.95L1.04001 72.63L1.00001 72.44L0.98001 72.31L0.92001 71.99L0.86001 71.67C-1.95999 54.95 2.26001 38.65 11.37 25.85C20.49 13.03 34.49 3.68999 51.21 0.869995ZM57.11 112.17C58.99 112.33 60.9 112.39 62.82 112.33H62.9L63.18 112.32L63.46 112.31L63.74 112.3L64.02 112.29L64.11 112.28L64.3 112.27L64.75 112.24L64.86 112.23L65.4 112.19H65.42L65.7 112.17L65.98 112.14L66.04 112.13L66.54 112.08L66.69 112.06L66.82 112.05L67.32 112H67.34L67.39 111.99L67.67 111.96L67.95 111.93L67.99 111.92L68.24 111.89L68.52 111.85L68.64 111.83L68.8 111.81L69.08 111.77L69.29 111.74L69.37 111.73L69.65 111.69L69.93 111.64H69.94L70.58 111.53H70.59L71.22 111.41H71.23L71.86 111.28H71.87L72.5 111.15H72.51L73.13 111.01H73.14L73.76 110.86H73.77L74.39 110.7H74.4L75.02 110.53H75.03L75.64 110.36H75.65L76.26 110.18H76.27L76.87 109.99H76.88L77.48 109.79H77.49L78.08 109.59H78.09L78.68 109.38H78.69L79.28 109.17H79.29L79.87 108.95H79.88L81.05 108.48H81.06C90 104.76 97.53 98.62 102.95 90.98C110.5 80.36 114 66.87 111.66 53.01C111.1 49.72 110.24 46.54 109.11 43.52C111.14 39.69 113.24 35.85 115.39 32.04L115.54 32.31L115.57 32.37L116.25 33.68L116.26 33.7L116.27 33.71L116.4 33.98L116.6 34.39L116.68 34.54L116.82 34.82L116.94 35.07L116.96 35.11L117.09 35.39L117.22 35.67L117.26 35.75L117.48 36.24L117.57 36.44L117.61 36.52L117.86 37.1L117.88 37.14L118.35 38.27L118.46 38.55L118.47 38.57L118.7 39.16L118.74 39.27L119.01 39.98L119.03 40.05L119.25 40.65L119.27 40.71L119.35 40.95L119.52 41.44L119.56 41.56L119.66 41.86L119.76 42.16V42.17L119.86 42.47L120.15 43.39L120.23 43.65L120.24 43.69L120.33 44L120.42 44.31L120.45 44.39L120.51 44.62L120.6 44.93L120.66 45.14L120.69 45.24L120.77 45.55L120.85 45.86L120.86 45.89L120.93 46.17L121.01 46.48L121.05 46.64L121.09 46.79L121.17 47.1L121.24 47.39V47.41L121.31 47.72L121.38 48.04L121.41 48.15L121.46 48.36L121.53 48.68L121.58 48.92L121.6 49L121.67 49.32L121.73 49.64L121.74 49.69L121.79 49.96L121.85 50.28L121.89 50.47L121.91 50.61L121.97 50.93L122.02 51.25C124.84 67.97 120.62 84.26 111.51 97.07C102.4 109.88 88.4 119.22 71.68 122.04L71.24 122.11L70.9 122.16L70.8 122.18L70.36 122.25L70.11 122.29L69.92 122.32L69.48 122.38L69.33 122.4L69.04 122.44L68.6 122.49L68.55 122.5L68.16 122.54L67.77 122.58H67.73L67.29 122.62L66.99 122.65L66.85 122.66L66.41 122.7L66.21 122.72L65.97 122.74L65.54 122.77L65.43 122.78L65.1 122.8L64.66 122.82H64.65L64.23 122.84L63.88 122.86H63.8L63.37 122.88L63.12 122.89L62.94 122.9L62.51 122.91H62.35H62.07H61.64H61.58H61.21H60.81H60.78L60.35 122.9L60.05 122.89H59.92L59.49 122.88L59.28 122.87L59.06 122.86L58.63 122.84H58.51L58.2 122.82L57.77 122.8H57.75L57.34 122.77H57.26L56.91 122.74L56.48 122.71L56.22 122.69L56.05 122.68L55.46 122.63L55.2 122.6L54.78 122.56L54.71 122.55L54.36 122.51L53.96 122.46H53.94L53.52 122.41L53.22 122.37L53.11 122.35L52.69 122.29L52.48 122.26L52.27 122.23L51.85 122.16L51.73 122.14L51.43 122.09L51.01 122.02H50.98L50.59 121.95L50.24 121.89L50.17 121.88L49.76 121.8L49.5 121.75L49.34 121.72L48.1 121.46L48.03 121.44L47.69 121.36L47.3 121.27H47.28L46.57 121.09L46.47 121.06C45.79 120.89 45.12 120.7 44.45 120.51C47.27 117.39 49.87 114.41 52.27 111.56C53.85 111.81 55.47 112.03 57.11 112.17Z" fill="#FF0000"/>
</g>
<defs>
<clipPath id="clip0_2_2">
<rect width="122.88" height="122.87" fill="white"/>
</clipPath>
</defs>
</svg>
